<svg width="24" height="23" viewBox="0 0 24 23" fill="none" xmlns="http://www.w3.org/2000/svg">
<path fill-rule="evenodd" clip-rule="evenodd" d="M4.23244 10.4007C9.06328 8.14981 12.2792 6.65417 13.8941 5.92856C18.4903 3.87021 19.4565 3.51481 20.0776 3.5C20.2156 3.5 20.5193 3.52962 20.7263 3.70732C20.892 3.8554 20.9334 4.04791 20.961 4.19599C20.9886 4.34407 21.0162 4.65505 20.9886 4.89198C20.7401 7.70556 19.6635 14.5322 19.1114 17.6715C18.8768 19.0043 18.4213 19.4485 17.9796 19.493C17.0135 19.5818 16.2819 18.8118 15.3572 18.1602C13.8941 17.1384 13.0798 16.5017 11.6581 15.4947C10.0156 14.3397 11.0784 13.7029 12.017 12.6663C12.2654 12.3998 16.5028 8.25347 16.5856 7.88326C16.5994 7.83883 16.5994 7.66113 16.5028 7.57228C16.4062 7.48343 16.2681 7.51305 16.1577 7.54267C16.0059 7.57228 13.6871 9.23081 9.1737 12.5034C8.51118 12.9921 7.91768 13.2291 7.37939 13.2142C6.78588 13.1994 5.65409 12.8588 4.79834 12.5627C3.76315 12.2073 2.93501 12.0148 3.00402 11.3928C3.04543 11.067 3.4595 10.7413 4.23244 10.4007Z" fill="#C2C6D7"/>
</svg>
