<svg width="24" height="24" viewBox="0 0 24 24" fill="none" xmlns="http://www.w3.org/2000/svg">
<path d="M18.2601 6.592C17.0866 6.08067 15.8404 5.708 14.5396 5.5C14.3759 5.76867 14.194 6.13266 14.0666 6.41867C12.6831 6.228 11.3095 6.228 9.94504 6.41867C9.81769 6.13266 9.62666 5.76867 9.47201 5.5C8.16216 5.708 6.91595 6.08067 5.7507 6.592C3.39474 9.90265 2.758 13.1353 3.07637 16.3246C4.64094 17.4079 6.15096 18.0666 7.63458 18.5C7.99844 18.032 8.32591 17.5293 8.6079 17.0007C8.07121 16.81 7.56181 16.576 7.07061 16.2986C7.19796 16.212 7.32531 16.1167 7.44356 16.0213C10.409 17.3127 13.6209 17.3127 16.5499 16.0213C16.6773 16.1167 16.7955 16.212 16.9229 16.2986C16.4317 16.576 15.9223 16.81 15.3856 17.0007C15.6676 17.5293 15.9951 18.032 16.3589 18.5C17.8416 18.0666 19.3607 17.4079 20.9171 16.3246C21.3082 12.6327 20.2976 9.42602 18.2601 6.592ZM9.01723 14.3573C8.12577 14.3573 7.39806 13.586 7.39806 12.6413C7.39806 11.6967 8.10758 10.9253 9.01723 10.9253C9.91775 10.9253 10.6545 11.6967 10.6363 12.6413C10.6363 13.586 9.91775 14.3573 9.01723 14.3573ZM14.9945 14.3573C14.103 14.3573 13.3744 13.586 13.3744 12.6413C13.3744 11.6967 14.0848 10.9253 14.9945 10.9253C15.895 10.9253 16.6318 11.6967 16.6136 12.6413C16.6136 13.586 15.9041 14.3573 14.9945 14.3573Z" fill="#C2C6D7"/>
</svg>
