<svg width="1600" height="500" viewBox="0 0 1600 500" fill="none" xmlns="http://www.w3.org/2000/svg">
<mask id="mask0_96_5680" style="mask-type:alpha" maskUnits="userSpaceOnUse" x="0" y="0" width="1600" height="500">
<rect width="1600" height="500" fill="#C4C4C4"/>
</mask>
<g mask="url(#mask0_96_5680)">
<path d="M0 400H25M0 400V425M0 400V375M25 400V425M25 400V375M25 400H50M25 425H0M25 425V450M25 425H50M0 425V450M25 0H0V25M25 0V25M25 0H50M25 25H0M25 25V50M25 25H50M0 25V50M400 400H425M400 400V425M400 400V375M400 400H375M425 400V425M425 400V375M425 400H450M425 425H400M425 425V450M425 425H450M400 425V450M400 425H375M400 0H425M400 0V25M400 0H375M425 0V25M425 0H450M425 25H400M425 25V50M425 25H450M400 25V50M400 25H375M0 600H25M0 600V625M0 600V575M25 600V625M25 600V575M25 600H50M25 625H0M25 625V650M25 625H50M0 625V650M0 200H25M0 200V225M0 200V175M25 200V225M25 200V175M25 200H50M25 225H0M25 225V250M25 225H50M0 225V250M400 600H425M400 600V625M400 600V575M400 600H375M425 600V625M425 600V575M425 600H450M425 625H400M425 625V650M425 625H450M400 625V650M400 625H375M400 200H425M400 200V225M400 200V175M400 200H375M425 200V225M425 200V175M425 200H450M425 225H400M425 225V250M425 225H450M400 225V250M400 225H375M0 500H25M0 500V525M0 500V475M25 500V525M25 500V475M25 500H50M25 525H0M25 525V550M25 525H50M0 525V550M0 100H25M0 100V125M0 100V75M25 100V125M25 100V75M25 100H50M25 125H0M25 125V150M25 125H50M0 125V150M400 500H425M400 500V525M400 500V475M400 500H375M425 500V525M425 500V475M425 500H450M425 525H400M425 525V550M425 525H450M400 525V550M400 525H375M400 100H425M400 100V125M400 100V75M400 100H375M425 100V125M425 100V75M425 100H450M425 125H400M425 125V150M425 125H450M400 125V150M400 125H375M0 700H25M0 700V725M0 700V675M25 700V725M25 700V675M25 700H50M25 725H0M25 725V750M25 725H50M0 725V750M0 300H25M0 300V325M0 300V275M25 300V325M25 300V275M25 300H50M25 325H0M25 325V350M25 325H50M0 325V350M400 700H425M400 700V725M400 700V675M400 700H375M425 700V725M425 700V675M425 700H450M425 725H400M425 725V750M425 725H450M400 725V750M400 725H375M400 300H425M400 300V325M400 300V275M400 300H375M425 300V325M425 300V275M425 300H450M425 325H400M425 325V350M425 325H450M400 325V350M400 325H375M25 450H0M25 450V475M25 450H50M0 450V475M25 50H0M25 50V75M25 50H50M0 50V75M425 450H400M425 450V475M425 450H450M400 450V475M400 450H375M425 50H400M425 50V75M425 50H450M400 50V75M400 50H375M25 650H0M25 650V675M25 650H50M0 650V675M25 250H0M25 250V275M25 250H50M0 250V275M425 650H400M425 650V675M425 650H450M400 650V675M400 650H375M425 250H400M425 250V275M425 250H450M400 250V275M400 250H375M25 550H0M25 550V575M25 550H50M0 550V575M25 150H0M25 150V175M25 150H50M0 150V175M425 550H400M425 550V575M425 550H450M400 550V575M400 550H375M425 150H400M425 150V175M425 150H450M400 150V175M400 150H375M25 750H0M25 750V775M25 750H50M0 750V775M25 350H0M25 350V375M25 350H50M0 350V375M425 750H400M425 750V775M425 750H450M400 750V775M400 750H375M425 350H400M425 350V375M425 350H450M400 350V375M400 350H375M25 475H0M25 475H50M25 75H0M25 75H50M425 475H400M425 475H450M400 475H375M425 75H400M425 75H450M400 75H375M25 675H0M25 675H50M25 275H0M25 275H50M425 675H400M425 675H450M400 675H375M425 275H400M425 275H450M400 275H375M25 575H0M25 575H50M25 175H0M25 175H50M425 575H400M425 575H450M400 575H375M425 175H400M425 175H450M400 175H375M25 775H0M25 775V800M25 775H50M0 775V800H25M25 375H0M25 375H50M425 775H400M425 775V800M425 775H450M400 775V800M400 775H375M425 375H400M425 375H450M400 375H375M25 800H50M425 800H400M425 800H450M400 800H375M200 400H225M200 400V425M200 400V375M200 400H175M225 400V425M225 400V375M225 400H250M225 425H200M225 425V450M225 425H250M200 425V450M200 425H175M200 0H225M200 0V25M200 0H175M225 0V25M225 0H250M225 25H200M225 25V50M225 25H250M200 25V50M200 25H175M600 400H625M600 400V425M600 400V375M600 400H575M625 400V425M625 400V375M625 400H650M625 425H600M625 425V450M625 425H650M600 425V450M600 425H575M600 0H625M600 0V25M600 0H575M625 0V25M625 0H650M625 25H600M625 25V50M625 25H650M600 25V50M600 25H575M200 600H225M200 600V625M200 600V575M200 600H175M225 600V625M225 600V575M225 600H250M225 625H200M225 625V650M225 625H250M200 625V650M200 625H175M200 200H225M200 200V225M200 200V175M200 200H175M225 200V225M225 200V175M225 200H250M225 225H200M225 225V250M225 225H250M200 225V250M200 225H175M600 600H625M600 600V625M600 600V575M600 600H575M625 600V625M625 600V575M625 600H650M625 625H600M625 625V650M625 625H650M600 625V650M600 625H575M600 200H625M600 200V225M600 200V175M600 200H575M625 200V225M625 200V175M625 200H650M625 225H600M625 225V250M625 225H650M600 225V250M600 225H575M200 500H225M200 500V525M200 500V475M200 500H175M225 500V525M225 500V475M225 500H250M225 525H200M225 525V550M225 525H250M200 525V550M200 525H175M200 100H225M200 100V125M200 100V75M200 100H175M225 100V125M225 100V75M225 100H250M225 125H200M225 125V150M225 125H250M200 125V150M200 125H175M600 500H625M600 500V525M600 500V475M600 500H575M625 500V525M625 500V475M625 500H650M625 525H600M625 525V550M625 525H650M600 525V550M600 525H575M600 100H625M600 100V125M600 100V75M600 100H575M625 100V125M625 100V75M625 100H650M625 125H600M625 125V150M625 125H650M600 125V150M600 125H575M200 700H225M200 700V725M200 700V675M200 700H175M225 700V725M225 700V675M225 700H250M225 725H200M225 725V750M225 725H250M200 725V750M200 725H175M200 300H225M200 300V325M200 300V275M200 300H175M225 300V325M225 300V275M225 300H250M225 325H200M225 325V350M225 325H250M200 325V350M200 325H175M600 700H625M600 700V725M600 700V675M600 700H575M625 700V725M625 700V675M625 700H650M625 725H600M625 725V750M625 725H650M600 725V750M600 725H575M600 300H625M600 300V325M600 300V275M600 300H575M625 300V325M625 300V275M625 300H650M625 325H600M625 325V350M625 325H650M600 325V350M600 325H575M225 450H200M225 450V475M225 450H250M200 450V475M200 450H175M225 50H200M225 50V75M225 50H250M200 50V75M200 50H175M625 450H600M625 450V475M625 450H650M600 450V475M600 450H575M625 50H600M625 50V75M625 50H650M600 50V75M600 50H575M225 650H200M225 650V675M225 650H250M200 650V675M200 650H175M225 250H200M225 250V275M225 250H250M200 250V275M200 250H175M625 650H600M625 650V675M625 650H650M600 650V675M600 650H575M625 250H600M625 250V275M625 250H650M600 250V275M600 250H575M225 550H200M225 550V575M225 550H250M200 550V575M200 550H175M225 150H200M225 150V175M225 150H250M200 150V175M200 150H175M625 550H600M625 550V575M625 550H650M600 550V575M600 550H575M625 150H600M625 150V175M625 150H650M600 150V175M600 150H575M225 750H200M225 750V775M225 750H250M200 750V775M200 750H175M225 350H200M225 350V375M225 350H250M200 350V375M200 350H175M625 750H600M625 750V775M625 750H650M600 750V775M600 750H575M625 350H600M625 350V375M625 350H650M600 350V375M600 350H575M225 475H200M225 475H250M200 475H175M225 75H200M225 75H250M200 75H175M625 475H600M625 475H650M600 475H575M625 75H600M625 75H650M600 75H575M225 675H200M225 675H250M200 675H175M225 275H200M225 275H250M200 275H175M625 675H600M625 675H650M600 675H575M625 275H600M625 275H650M600 275H575M225 575H200M225 575H250M200 575H175M225 175H200M225 175H250M200 175H175M625 575H600M625 575H650M600 575H575M625 175H600M625 175H650M600 175H575M225 775H200M225 775V800M225 775H250M200 775V800M200 775H175M225 375H200M225 375H250M200 375H175M625 775H600M625 775V800M625 775H650M600 775V800M600 775H575M625 375H600M625 375H650M600 375H575M225 800H200M225 800H250M200 800H175M625 800H600M625 800H650M600 800H575M100 400H125M100 400V425M100 400V375M100 400H75M125 400V425M125 400V375M125 400H150M125 425H100M125 425V450M125 425H150M100 425V450M100 425H75M100 0H125M100 0V25M100 0H75M125 0V25M125 0H150M125 25H100M125 25V50M125 25H150M100 25V50M100 25H75M500 400H525M500 400V425M500 400V375M500 400H475M525 400V425M525 400V375M525 400H550M525 425H500M525 425V450M525 425H550M500 425V450M500 425H475M500 0H525M500 0V25M500 0H475M525 0V25M525 0H550M525 25H500M525 25V50M525 25H550M500 25V50M500 25H475M100 600H125M100 600V625M100 600V575M100 600H75M125 600V625M125 600V575M125 600H150M125 625H100M125 625V650M125 625H150M100 625V650M100 625H75M100 200H125M100 200V225M100 200V175M100 200H75M125 200V225M125 200V175M125 200H150M125 225H100M125 225V250M125 225H150M100 225V250M100 225H75M500 600H525M500 600V625M500 600V575M500 600H475M525 600V625M525 600V575M525 600H550M525 625H500M525 625V650M525 625H550M500 625V650M500 625H475M500 200H525M500 200V225M500 200V175M500 200H475M525 200V225M525 200V175M525 200H550M525 225H500M525 225V250M525 225H550M500 225V250M500 225H475M100 500H125M100 500V525M100 500V475M100 500H75M125 500V525M125 500V475M125 500H150M125 525H100M125 525V550M125 525H150M100 525V550M100 525H75M100 100H125M100 100V125M100 100V75M100 100H75M125 100V125M125 100V75M125 100H150M125 125H100M125 125V150M125 125H150M100 125V150M100 125H75M500 500H525M500 500V525M500 500V475M500 500H475M525 500V525M525 500V475M525 500H550M525 525H500M525 525V550M525 525H550M500 525V550M500 525H475M500 100H525M500 100V125M500 100V75M500 100H475M525 100V125M525 100V75M525 100H550M525 125H500M525 125V150M525 125H550M500 125V150M500 125H475M100 700H125M100 700V725M100 700V675M100 700H75M125 700V725M125 700V675M125 700H150M125 725H100M125 725V750M125 725H150M100 725V750M100 725H75M100 300H125M100 300V325M100 300V275M100 300H75M125 300V325M125 300V275M125 300H150M125 325H100M125 325V350M125 325H150M100 325V350M100 325H75M500 700H525M500 700V725M500 700V675M500 700H475M525 700V725M525 700V675M525 700H550M525 725H500M525 725V750M525 725H550M500 725V750M500 725H475M500 300H525M500 300V325M500 300V275M500 300H475M525 300V325M525 300V275M525 300H550M525 325H500M525 325V350M525 325H550M500 325V350M500 325H475M125 450H100M125 450V475M125 450H150M100 450V475M100 450H75M125 50H100M125 50V75M125 50H150M100 50V75M100 50H75M525 450H500M525 450V475M525 450H550M500 450V475M500 450H475M525 50H500M525 50V75M525 50H550M500 50V75M500 50H475M125 650H100M125 650V675M125 650H150M100 650V675M100 650H75M125 250H100M125 250V275M125 250H150M100 250V275M100 250H75M525 650H500M525 650V675M525 650H550M500 650V675M500 650H475M525 250H500M525 250V275M525 250H550M500 250V275M500 250H475M125 550H100M125 550V575M125 550H150M100 550V575M100 550H75M125 150H100M125 150V175M125 150H150M100 150V175M100 150H75M525 550H500M525 550V575M525 550H550M500 550V575M500 550H475M525 150H500M525 150V175M525 150H550M500 150V175M500 150H475M125 750H100M125 750V775M125 750H150M100 750V775M100 750H75M125 350H100M125 350V375M125 350H150M100 350V375M100 350H75M525 750H500M525 750V775M525 750H550M500 750V775M500 750H475M525 350H500M525 350V375M525 350H550M500 350V375M500 350H475M125 475H100M125 475H150M100 475H75M125 75H100M125 75H150M100 75H75M525 475H500M525 475H550M500 475H475M525 75H500M525 75H550M500 75H475M125 675H100M125 675H150M100 675H75M125 275H100M125 275H150M100 275H75M525 675H500M525 675H550M500 675H475M525 275H500M525 275H550M500 275H475M125 575H100M125 575H150M100 575H75M125 175H100M125 175H150M100 175H75M525 575H500M525 575H550M500 575H475M525 175H500M525 175H550M500 175H475M125 775H100M125 775V800M125 775H150M100 775V800M100 775H75M125 375H100M125 375H150M100 375H75M525 775H500M525 775V800M525 775H550M500 775V800M500 775H475M525 375H500M525 375H550M500 375H475M125 800H100M125 800H150M100 800H75M525 800H500M525 800H550M500 800H475M300 400H325M300 400V425M300 400V375M300 400H275M325 400V425M325 400V375M325 400H350M325 425H300M325 425V450M325 425H350M300 425V450M300 425H275M300 0H325M300 0V25M300 0H275M325 0V25M325 0H350M325 25H300M325 25V50M325 25H350M300 25V50M300 25H275M700 400H725M700 400V425M700 400V375M700 400H675M725 400V425M725 400V375M725 400H750M725 425H700M725 425V450M725 425H750M700 425V450M700 425H675M700 0H725M700 0V25M700 0H675M725 0V25M725 0H750M725 25H700M725 25V50M725 25H750M700 25V50M700 25H675M300 600H325M300 600V625M300 600V575M300 600H275M325 600V625M325 600V575M325 600H350M325 625H300M325 625V650M325 625H350M300 625V650M300 625H275M300 200H325M300 200V225M300 200V175M300 200H275M325 200V225M325 200V175M325 200H350M325 225H300M325 225V250M325 225H350M300 225V250M300 225H275M700 600H725M700 600V625M700 600V575M700 600H675M725 600V625M725 600V575M725 600H750M725 625H700M725 625V650M725 625H750M700 625V650M700 625H675M700 200H725M700 200V225M700 200V175M700 200H675M725 200V225M725 200V175M725 200H750M725 225H700M725 225V250M725 225H750M700 225V250M700 225H675M300 500H325M300 500V525M300 500V475M300 500H275M325 500V525M325 500V475M325 500H350M325 525H300M325 525V550M325 525H350M300 525V550M300 525H275M300 100H325M300 100V125M300 100V75M300 100H275M325 100V125M325 100V75M325 100H350M325 125H300M325 125V150M325 125H350M300 125V150M300 125H275M700 500H725M700 500V525M700 500V475M700 500H675M725 500V525M725 500V475M725 500H750M725 525H700M725 525V550M725 525H750M700 525V550M700 525H675M700 100H725M700 100V125M700 100V75M700 100H675M725 100V125M725 100V75M725 100H750M725 125H700M725 125V150M725 125H750M700 125V150M700 125H675M300 700H325M300 700V725M300 700V675M300 700H275M325 700V725M325 700V675M325 700H350M325 725H300M325 725V750M325 725H350M300 725V750M300 725H275M300 300H325M300 300V325M300 300V275M300 300H275M325 300V325M325 300V275M325 300H350M325 325H300M325 325V350M325 325H350M300 325V350M300 325H275M700 700H725M700 700V725M700 700V675M700 700H675M725 700V725M725 700V675M725 700H750M725 725H700M725 725V750M725 725H750M700 725V750M700 725H675M700 300H725M700 300V325M700 300V275M700 300H675M725 300V325M725 300V275M725 300H750M725 325H700M725 325V350M725 325H750M700 325V350M700 325H675M325 450H300M325 450V475M325 450H350M300 450V475M300 450H275M325 50H300M325 50V75M325 50H350M300 50V75M300 50H275M725 450H700M725 450V475M725 450H750M700 450V475M700 450H675M725 50H700M725 50V75M725 50H750M700 50V75M700 50H675M325 650H300M325 650V675M325 650H350M300 650V675M300 650H275M325 250H300M325 250V275M325 250H350M300 250V275M300 250H275M725 650H700M725 650V675M725 650H750M700 650V675M700 650H675M725 250H700M725 250V275M725 250H750M700 250V275M700 250H675M325 550H300M325 550V575M325 550H350M300 550V575M300 550H275M325 150H300M325 150V175M325 150H350M300 150V175M300 150H275M725 550H700M725 550V575M725 550H750M700 550V575M700 550H675M725 150H700M725 150V175M725 150H750M700 150V175M700 150H675M325 750H300M325 750V775M325 750H350M300 750V775M300 750H275M325 350H300M325 350V375M325 350H350M300 350V375M300 350H275M725 750H700M725 750V775M725 750H750M700 750V775M700 750H675M725 350H700M725 350V375M725 350H750M700 350V375M700 350H675M325 475H300M325 475H350M300 475H275M325 75H300M325 75H350M300 75H275M725 475H700M725 475H750M700 475H675M725 75H700M725 75H750M700 75H675M325 675H300M325 675H350M300 675H275M325 275H300M325 275H350M300 275H275M725 675H700M725 675H750M700 675H675M725 275H700M725 275H750M700 275H675M325 575H300M325 575H350M300 575H275M325 175H300M325 175H350M300 175H275M725 575H700M725 575H750M700 575H675M725 175H700M725 175H750M700 175H675M325 775H300M325 775V800M325 775H350M300 775V800M300 775H275M325 375H300M325 375H350M300 375H275M725 775H700M725 775V800M725 775H750M700 775V800M700 775H675M725 375H700M725 375H750M700 375H675M325 800H300M325 800H350M300 800H275M725 800H700M725 800H750M700 800H675M50 400V425M50 400V375M50 400H75M50 425V450M50 425H75M50 0V25M50 0H75M50 25V50M50 25H75M450 400V425M450 400V375M450 400H475M450 425V450M450 425H475M450 0V25M450 0H475M450 25V50M450 25H475M50 600V625M50 600V575M50 600H75M50 625V650M50 625H75M50 200V225M50 200V175M50 200H75M50 225V250M50 225H75M450 600V625M450 600V575M450 600H475M450 625V650M450 625H475M450 200V225M450 200V175M450 200H475M450 225V250M450 225H475M50 500V525M50 500V475M50 500H75M50 525V550M50 525H75M50 100V125M50 100V75M50 100H75M50 125V150M50 125H75M450 500V525M450 500V475M450 500H475M450 525V550M450 525H475M450 100V125M450 100V75M450 100H475M450 125V150M450 125H475M50 700V725M50 700V675M50 700H75M50 725V750M50 725H75M50 300V325M50 300V275M50 300H75M50 325V350M50 325H75M450 700V725M450 700V675M450 700H475M450 725V750M450 725H475M450 300V325M450 300V275M450 300H475M450 325V350M450 325H475M50 450V475M50 450H75M50 50V75M50 50H75M450 450V475M450 450H475M450 50V75M450 50H475M50 650V675M50 650H75M50 250V275M50 250H75M450 650V675M450 650H475M450 250V275M450 250H475M50 550V575M50 550H75M50 150V175M50 150H75M450 550V575M450 550H475M450 150V175M450 150H475M50 750V775M50 750H75M50 350V375M50 350H75M450 750V775M450 750H475M450 350V375M450 350H475M50 475H75M50 75H75M450 475H475M450 75H475M50 675H75M50 275H75M450 675H475M450 275H475M50 575H75M50 175H75M450 575H475M450 175H475M50 775V800M50 775H75M50 375H75M450 775V800M450 775H475M450 375H475M50 800H75M450 800H475M250 400V425M250 400V375M250 400H275M250 425V450M250 425H275M250 0V25M250 0H275M250 25V50M250 25H275M650 400V425M650 400V375M650 400H675M650 425V450M650 425H675M650 0V25M650 0H675M650 25V50M650 25H675M250 600V625M250 600V575M250 600H275M250 625V650M250 625H275M250 200V225M250 200V175M250 200H275M250 225V250M250 225H275M650 600V625M650 600V575M650 600H675M650 625V650M650 625H675M650 200V225M650 200V175M650 200H675M650 225V250M650 225H675M250 500V525M250 500V475M250 500H275M250 525V550M250 525H275M250 100V125M250 100V75M250 100H275M250 125V150M250 125H275M650 500V525M650 500V475M650 500H675M650 525V550M650 525H675M650 100V125M650 100V75M650 100H675M650 125V150M650 125H675M250 700V725M250 700V675M250 700H275M250 725V750M250 725H275M250 300V325M250 300V275M250 300H275M250 325V350M250 325H275M650 700V725M650 700V675M650 700H675M650 725V750M650 725H675M650 300V325M650 300V275M650 300H675M650 325V350M650 325H675M250 450V475M250 450H275M250 50V75M250 50H275M650 450V475M650 450H675M650 50V75M650 50H675M250 650V675M250 650H275M250 250V275M250 250H275M650 650V675M650 650H675M650 250V275M650 250H675M250 550V575M250 550H275M250 150V175M250 150H275M650 550V575M650 550H675M650 150V175M650 150H675M250 750V775M250 750H275M250 350V375M250 350H275M650 750V775M650 750H675M650 350V375M650 350H675M250 475H275M250 75H275M650 475H675M650 75H675M250 675H275M250 275H275M650 675H675M650 275H675M250 575H275M250 175H275M650 575H675M650 175H675M250 775V800M250 775H275M250 375H275M650 775V800M650 775H675M650 375H675M250 800H275M650 800H675M150 400V425M150 400V375M150 400H175M150 425V450M150 425H175M150 0V25M150 0H175M150 25V50M150 25H175M550 400V425M550 400V375M550 400H575M550 425V450M550 425H575M550 0V25M550 0H575M550 25V50M550 25H575M150 600V625M150 600V575M150 600H175M150 625V650M150 625H175M150 200V225M150 200V175M150 200H175M150 225V250M150 225H175M550 600V625M550 600V575M550 600H575M550 625V650M550 625H575M550 200V225M550 200V175M550 200H575M550 225V250M550 225H575M150 500V525M150 500V475M150 500H175M150 525V550M150 525H175M150 100V125M150 100V75M150 100H175M150 125V150M150 125H175M550 500V525M550 500V475M550 500H575M550 525V550M550 525H575M550 100V125M550 100V75M550 100H575M550 125V150M550 125H575M150 700V725M150 700V675M150 700H175M150 725V750M150 725H175M150 300V325M150 300V275M150 300H175M150 325V350M150 325H175M550 700V725M550 700V675M550 700H575M550 725V750M550 725H575M550 300V325M550 300V275M550 300H575M550 325V350M550 325H575M150 450V475M150 450H175M150 50V75M150 50H175M550 450V475M550 450H575M550 50V75M550 50H575M150 650V675M150 650H175M150 250V275M150 250H175M550 650V675M550 650H575M550 250V275M550 250H575M150 550V575M150 550H175M150 150V175M150 150H175M550 550V575M550 550H575M550 150V175M550 150H575M150 750V775M150 750H175M150 350V375M150 350H175M550 750V775M550 750H575M550 350V375M550 350H575M150 475H175M150 75H175M550 475H575M550 75H575M150 675H175M150 275H175M550 675H575M550 275H575M150 575H175M150 175H175M550 575H575M550 175H575M150 775V800M150 775H175M150 375H175M550 775V800M550 775H575M550 375H575M150 800H175M550 800H575M350 400V425M350 400V375M350 400H375M350 425V450M350 425H375M350 0V25M350 0H375M350 25V50M350 25H375M750 400V425M750 400V375M750 400H775M750 425V450M750 425H775M750 0V25M750 0H775M750 25V50M750 25H775M350 600V625M350 600V575M350 600H375M350 625V650M350 625H375M350 200V225M350 200V175M350 200H375M350 225V250M350 225H375M750 600V625M750 600V575M750 600H775M750 625V650M750 625H775M750 200V225M750 200V175M750 200H775M750 225V250M750 225H775M350 500V525M350 500V475M350 500H375M350 525V550M350 525H375M350 100V125M350 100V75M350 100H375M350 125V150M350 125H375M750 500V525M750 500V475M750 500H775M750 525V550M750 525H775M750 100V125M750 100V75M750 100H775M750 125V150M750 125H775M350 700V725M350 700V675M350 700H375M350 725V750M350 725H375M350 300V325M350 300V275M350 300H375M350 325V350M350 325H375M750 700V725M750 700V675M750 700H775M750 725V750M750 725H775M750 300V325M750 300V275M750 300H775M750 325V350M750 325H775M350 450V475M350 450H375M350 50V75M350 50H375M750 450V475M750 450H775M750 50V75M750 50H775M350 650V675M350 650H375M350 250V275M350 250H375M750 650V675M750 650H775M750 250V275M750 250H775M350 550V575M350 550H375M350 150V175M350 150H375M750 550V575M750 550H775M750 150V175M750 150H775M350 750V775M350 750H375M350 350V375M350 350H375M750 750V775M750 750H775M750 350V375M750 350H775M350 475H375M350 75H375M750 475H775M750 75H775M350 675H375M350 275H375M750 675H775M750 275H775M350 575H375M350 175H375M750 575H775M750 175H775M350 775V800M350 775H375M350 375H375M750 775V800M750 775H775M750 375H775M350 800H375M750 800H775M75 400V425M75 400V375M75 425V450M75 0V25M75 25V50M475 400V425M475 400V375M475 425V450M475 0V25M475 25V50M75 600V625M75 600V575M75 625V650M75 200V225M75 200V175M75 225V250M475 600V625M475 600V575M475 625V650M475 200V225M475 200V175M475 225V250M75 500V525M75 500V475M75 525V550M75 100V125M75 100V75M75 125V150M475 500V525M475 500V475M475 525V550M475 100V125M475 100V75M475 125V150M75 700V725M75 700V675M75 725V750M75 300V325M75 300V275M75 325V350M475 700V725M475 700V675M475 725V750M475 300V325M475 300V275M475 325V350M75 450V475M75 50V75M475 450V475M475 50V75M75 650V675M75 250V275M475 650V675M475 250V275M75 550V575M75 150V175M475 550V575M475 150V175M75 750V775M75 350V375M475 750V775M475 350V375M75 775V800M475 775V800M275 400V425M275 400V375M275 425V450M275 0V25M275 25V50M675 400V425M675 400V375M675 425V450M675 0V25M675 25V50M275 600V625M275 600V575M275 625V650M275 200V225M275 200V175M275 225V250M675 600V625M675 600V575M675 625V650M675 200V225M675 200V175M675 225V250M275 500V525M275 500V475M275 525V550M275 100V125M275 100V75M275 125V150M675 500V525M675 500V475M675 525V550M675 100V125M675 100V75M675 125V150M275 700V725M275 700V675M275 725V750M275 300V325M275 300V275M275 325V350M675 700V725M675 700V675M675 725V750M675 300V325M675 300V275M675 325V350M275 450V475M275 50V75M675 450V475M675 50V75M275 650V675M275 250V275M675 650V675M675 250V275M275 550V575M275 150V175M675 550V575M675 150V175M275 750V775M275 350V375M675 750V775M675 350V375M275 775V800M675 775V800M175 400V425M175 400V375M175 425V450M175 0V25M175 25V50M575 400V425M575 400V375M575 425V450M575 0V25M575 25V50M175 600V625M175 600V575M175 625V650M175 200V225M175 200V175M175 225V250M575 600V625M575 600V575M575 625V650M575 200V225M575 200V175M575 225V250M175 500V525M175 500V475M175 525V550M175 100V125M175 100V75M175 125V150M575 500V525M575 500V475M575 525V550M575 100V125M575 100V75M575 125V150M175 700V725M175 700V675M175 725V750M175 300V325M175 300V275M175 325V350M575 700V725M575 700V675M575 725V750M575 300V325M575 300V275M575 325V350M175 450V475M175 50V75M575 450V475M575 50V75M175 650V675M175 250V275M575 650V675M575 250V275M175 550V575M175 150V175M575 550V575M575 150V175M175 750V775M175 350V375M575 750V775M575 350V375M175 775V800M575 775V800M375 400V425M375 400V375M375 425V450M375 0V25M375 25V50M775 400V425M775 400V375M775 400H800M775 425V450M775 425H800M775 0V25M775 0H800M775 25V50M775 25H800M375 600V625M375 600V575M375 625V650M375 200V225M375 200V175M375 225V250M775 600V625M775 600V575M775 600H800M775 625V650M775 625H800M775 200V225M775 200V175M775 200H800M775 225V250M775 225H800M375 500V525M375 500V475M375 525V550M375 100V125M375 100V75M375 125V150M775 500V525M775 500V475M775 500H800M775 525V550M775 525H800M775 100V125M775 100V75M775 100H800M775 125V150M775 125H800M375 700V725M375 700V675M375 725V750M375 300V325M375 300V275M375 325V350M775 700V725M775 700V675M775 700H800M775 725V750M775 725H800M775 300V325M775 300V275M775 300H800M775 325V350M775 325H800M375 450V475M375 50V75M775 450V475M775 450H800M775 50V75M775 50H800M375 650V675M375 250V275M775 650V675M775 650H800M775 250V275M775 250H800M375 550V575M375 150V175M775 550V575M775 550H800M775 150V175M775 150H800M375 750V775M375 350V375M775 750V775M775 750H800M775 350V375M775 350H800M775 475H800M775 75H800M775 675H800M775 275H800M775 575H800M775 175H800M375 775V800M775 775V800M775 775H800M775 375H800M775 800H800M800 400V425M800 400V375M800 400H825M800 425V450M800 425H825M800 0V25M800 0H825M800 25V50M800 25H825M800 600V625M800 600V575M800 600H825M800 625V650M800 625H825M800 200V225M800 200V175M800 200H825M800 225V250M800 225H825M800 500V525M800 500V475M800 500H825M800 525V550M800 525H825M800 100V125M800 100V75M800 100H825M800 125V150M800 125H825M800 700V725M800 700V675M800 700H825M800 725V750M800 725H825M800 300V325M800 300V275M800 300H825M800 325V350M800 325H825M800 450V475M800 450H825M800 50V75M800 50H825M800 650V675M800 650H825M800 250V275M800 250H825M800 550V575M800 550H825M800 150V175M800 150H825M800 750V775M800 750H825M800 350V375M800 350H825M800 475H825M800 75H825M800 675H825M800 275H825M800 575H825M800 175H825M800 775V800M800 775H825M800 375H825M800 800H825M825 400V425M825 400V375M825 400H850M825 425V450M825 425H850M825 0V25M825 0H850M825 25V50M825 25H850M1200 400H1225M1200 400V425M1200 400V375M1200 400H1175M1225 400V425M1225 400V375M1225 400H1250M1225 425H1200M1225 425V450M1225 425H1250M1200 425V450M1200 425H1175M1200 0H1225M1200 0V25M1200 0H1175M1225 0V25M1225 0H1250M1225 25H1200M1225 25V50M1225 25H1250M1200 25V50M1200 25H1175M825 600V625M825 600V575M825 600H850M825 625V650M825 625H850M825 200V225M825 200V175M825 200H850M825 225V250M825 225H850M1200 600H1225M1200 600V625M1200 600V575M1200 600H1175M1225 600V625M1225 600V575M1225 600H1250M1225 625H1200M1225 625V650M1225 625H1250M1200 625V650M1200 625H1175M1200 200H1225M1200 200V225M1200 200V175M1200 200H1175M1225 200V225M1225 200V175M1225 200H1250M1225 225H1200M1225 225V250M1225 225H1250M1200 225V250M1200 225H1175M825 500V525M825 500V475M825 500H850M825 525V550M825 525H850M825 100V125M825 100V75M825 100H850M825 125V150M825 125H850M1200 500H1225M1200 500V525M1200 500V475M1200 500H1175M1225 500V525M1225 500V475M1225 500H1250M1225 525H1200M1225 525V550M1225 525H1250M1200 525V550M1200 525H1175M1200 100H1225M1200 100V125M1200 100V75M1200 100H1175M1225 100V125M1225 100V75M1225 100H1250M1225 125H1200M1225 125V150M1225 125H1250M1200 125V150M1200 125H1175M825 700V725M825 700V675M825 700H850M825 725V750M825 725H850M825 300V325M825 300V275M825 300H850M825 325V350M825 325H850M1200 700H1225M1200 700V725M1200 700V675M1200 700H1175M1225 700V725M1225 700V675M1225 700H1250M1225 725H1200M1225 725V750M1225 725H1250M1200 725V750M1200 725H1175M1200 300H1225M1200 300V325M1200 300V275M1200 300H1175M1225 300V325M1225 300V275M1225 300H1250M1225 325H1200M1225 325V350M1225 325H1250M1200 325V350M1200 325H1175M825 450V475M825 450H850M825 50V75M825 50H850M1225 450H1200M1225 450V475M1225 450H1250M1200 450V475M1200 450H1175M1225 50H1200M1225 50V75M1225 50H1250M1200 50V75M1200 50H1175M825 650V675M825 650H850M825 250V275M825 250H850M1225 650H1200M1225 650V675M1225 650H1250M1200 650V675M1200 650H1175M1225 250H1200M1225 250V275M1225 250H1250M1200 250V275M1200 250H1175M825 550V575M825 550H850M825 150V175M825 150H850M1225 550H1200M1225 550V575M1225 550H1250M1200 550V575M1200 550H1175M1225 150H1200M1225 150V175M1225 150H1250M1200 150V175M1200 150H1175M825 750V775M825 750H850M825 350V375M825 350H850M1225 750H1200M1225 750V775M1225 750H1250M1200 750V775M1200 750H1175M1225 350H1200M1225 350V375M1225 350H1250M1200 350V375M1200 350H1175M825 475H850M825 75H850M1225 475H1200M1225 475H1250M1200 475H1175M1225 75H1200M1225 75H1250M1200 75H1175M825 675H850M825 275H850M1225 675H1200M1225 675H1250M1200 675H1175M1225 275H1200M1225 275H1250M1200 275H1175M825 575H850M825 175H850M1225 575H1200M1225 575H1250M1200 575H1175M1225 175H1200M1225 175H1250M1200 175H1175M825 775V800M825 775H850M825 375H850M1225 775H1200M1225 775V800M1225 775H1250M1200 775V800M1200 775H1175M1225 375H1200M1225 375H1250M1200 375H1175M825 800H850M1225 800H1200M1225 800H1250M1200 800H1175M1000 400H1025M1000 400V425M1000 400V375M1000 400H975M1025 400V425M1025 400V375M1025 400H1050M1025 425H1000M1025 425V450M1025 425H1050M1000 425V450M1000 425H975M1000 0H1025M1000 0V25M1000 0H975M1025 0V25M1025 0H1050M1025 25H1000M1025 25V50M1025 25H1050M1000 25V50M1000 25H975M1400 400H1425M1400 400V425M1400 400V375M1400 400H1375M1425 400V425M1425 400V375M1425 400H1450M1425 425H1400M1425 425V450M1425 425H1450M1400 425V450M1400 425H1375M1400 0H1425M1400 0V25M1400 0H1375M1425 0V25M1425 0H1450M1425 25H1400M1425 25V50M1425 25H1450M1400 25V50M1400 25H1375M1000 600H1025M1000 600V625M1000 600V575M1000 600H975M1025 600V625M1025 600V575M1025 600H1050M1025 625H1000M1025 625V650M1025 625H1050M1000 625V650M1000 625H975M1000 200H1025M1000 200V225M1000 200V175M1000 200H975M1025 200V225M1025 200V175M1025 200H1050M1025 225H1000M1025 225V250M1025 225H1050M1000 225V250M1000 225H975M1400 600H1425M1400 600V625M1400 600V575M1400 600H1375M1425 600V625M1425 600V575M1425 600H1450M1425 625H1400M1425 625V650M1425 625H1450M1400 625V650M1400 625H1375M1400 200H1425M1400 200V225M1400 200V175M1400 200H1375M1425 200V225M1425 200V175M1425 200H1450M1425 225H1400M1425 225V250M1425 225H1450M1400 225V250M1400 225H1375M1000 500H1025M1000 500V525M1000 500V475M1000 500H975M1025 500V525M1025 500V475M1025 500H1050M1025 525H1000M1025 525V550M1025 525H1050M1000 525V550M1000 525H975M1000 100H1025M1000 100V125M1000 100V75M1000 100H975M1025 100V125M1025 100V75M1025 100H1050M1025 125H1000M1025 125V150M1025 125H1050M1000 125V150M1000 125H975M1400 500H1425M1400 500V525M1400 500V475M1400 500H1375M1425 500V525M1425 500V475M1425 500H1450M1425 525H1400M1425 525V550M1425 525H1450M1400 525V550M1400 525H1375M1400 100H1425M1400 100V125M1400 100V75M1400 100H1375M1425 100V125M1425 100V75M1425 100H1450M1425 125H1400M1425 125V150M1425 125H1450M1400 125V150M1400 125H1375M1000 700H1025M1000 700V725M1000 700V675M1000 700H975M1025 700V725M1025 700V675M1025 700H1050M1025 725H1000M1025 725V750M1025 725H1050M1000 725V750M1000 725H975M1000 300H1025M1000 300V325M1000 300V275M1000 300H975M1025 300V325M1025 300V275M1025 300H1050M1025 325H1000M1025 325V350M1025 325H1050M1000 325V350M1000 325H975M1400 700H1425M1400 700V725M1400 700V675M1400 700H1375M1425 700V725M1425 700V675M1425 700H1450M1425 725H1400M1425 725V750M1425 725H1450M1400 725V750M1400 725H1375M1400 300H1425M1400 300V325M1400 300V275M1400 300H1375M1425 300V325M1425 300V275M1425 300H1450M1425 325H1400M1425 325V350M1425 325H1450M1400 325V350M1400 325H1375M1025 450H1000M1025 450V475M1025 450H1050M1000 450V475M1000 450H975M1025 50H1000M1025 50V75M1025 50H1050M1000 50V75M1000 50H975M1425 450H1400M1425 450V475M1425 450H1450M1400 450V475M1400 450H1375M1425 50H1400M1425 50V75M1425 50H1450M1400 50V75M1400 50H1375M1025 650H1000M1025 650V675M1025 650H1050M1000 650V675M1000 650H975M1025 250H1000M1025 250V275M1025 250H1050M1000 250V275M1000 250H975M1425 650H1400M1425 650V675M1425 650H1450M1400 650V675M1400 650H1375M1425 250H1400M1425 250V275M1425 250H1450M1400 250V275M1400 250H1375M1025 550H1000M1025 550V575M1025 550H1050M1000 550V575M1000 550H975M1025 150H1000M1025 150V175M1025 150H1050M1000 150V175M1000 150H975M1425 550H1400M1425 550V575M1425 550H1450M1400 550V575M1400 550H1375M1425 150H1400M1425 150V175M1425 150H1450M1400 150V175M1400 150H1375M1025 750H1000M1025 750V775M1025 750H1050M1000 750V775M1000 750H975M1025 350H1000M1025 350V375M1025 350H1050M1000 350V375M1000 350H975M1425 750H1400M1425 750V775M1425 750H1450M1400 750V775M1400 750H1375M1425 350H1400M1425 350V375M1425 350H1450M1400 350V375M1400 350H1375M1025 475H1000M1025 475H1050M1000 475H975M1025 75H1000M1025 75H1050M1000 75H975M1425 475H1400M1425 475H1450M1400 475H1375M1425 75H1400M1425 75H1450M1400 75H1375M1025 675H1000M1025 675H1050M1000 675H975M1025 275H1000M1025 275H1050M1000 275H975M1425 675H1400M1425 675H1450M1400 675H1375M1425 275H1400M1425 275H1450M1400 275H1375M1025 575H1000M1025 575H1050M1000 575H975M1025 175H1000M1025 175H1050M1000 175H975M1425 575H1400M1425 575H1450M1400 575H1375M1425 175H1400M1425 175H1450M1400 175H1375M1025 775H1000M1025 775V800M1025 775H1050M1000 775V800M1000 775H975M1025 375H1000M1025 375H1050M1000 375H975M1425 775H1400M1425 775V800M1425 775H1450M1400 775V800M1400 775H1375M1425 375H1400M1425 375H1450M1400 375H1375M1025 800H1000M1025 800H1050M1000 800H975M1425 800H1400M1425 800H1450M1400 800H1375M900 400H925M900 400V425M900 400V375M900 400H875M925 400V425M925 400V375M925 400H950M925 425H900M925 425V450M925 425H950M900 425V450M900 425H875M900 0H925M900 0V25M900 0H875M925 0V25M925 0H950M925 25H900M925 25V50M925 25H950M900 25V50M900 25H875M1300 400H1325M1300 400V425M1300 400V375M1300 400H1275M1325 400V425M1325 400V375M1325 400H1350M1325 425H1300M1325 425V450M1325 425H1350M1300 425V450M1300 425H1275M1300 0H1325M1300 0V25M1300 0H1275M1325 0V25M1325 0H1350M1325 25H1300M1325 25V50M1325 25H1350M1300 25V50M1300 25H1275M900 600H925M900 600V625M900 600V575M900 600H875M925 600V625M925 600V575M925 600H950M925 625H900M925 625V650M925 625H950M900 625V650M900 625H875M900 200H925M900 200V225M900 200V175M900 200H875M925 200V225M925 200V175M925 200H950M925 225H900M925 225V250M925 225H950M900 225V250M900 225H875M1300 600H1325M1300 600V625M1300 600V575M1300 600H1275M1325 600V625M1325 600V575M1325 600H1350M1325 625H1300M1325 625V650M1325 625H1350M1300 625V650M1300 625H1275M1300 200H1325M1300 200V225M1300 200V175M1300 200H1275M1325 200V225M1325 200V175M1325 200H1350M1325 225H1300M1325 225V250M1325 225H1350M1300 225V250M1300 225H1275M900 500H925M900 500V525M900 500V475M900 500H875M925 500V525M925 500V475M925 500H950M925 525H900M925 525V550M925 525H950M900 525V550M900 525H875M900 100H925M900 100V125M900 100V75M900 100H875M925 100V125M925 100V75M925 100H950M925 125H900M925 125V150M925 125H950M900 125V150M900 125H875M1300 500H1325M1300 500V525M1300 500V475M1300 500H1275M1325 500V525M1325 500V475M1325 500H1350M1325 525H1300M1325 525V550M1325 525H1350M1300 525V550M1300 525H1275M1300 100H1325M1300 100V125M1300 100V75M1300 100H1275M1325 100V125M1325 100V75M1325 100H1350M1325 125H1300M1325 125V150M1325 125H1350M1300 125V150M1300 125H1275M900 700H925M900 700V725M900 700V675M900 700H875M925 700V725M925 700V675M925 700H950M925 725H900M925 725V750M925 725H950M900 725V750M900 725H875M900 300H925M900 300V325M900 300V275M900 300H875M925 300V325M925 300V275M925 300H950M925 325H900M925 325V350M925 325H950M900 325V350M900 325H875M1300 700H1325M1300 700V725M1300 700V675M1300 700H1275M1325 700V725M1325 700V675M1325 700H1350M1325 725H1300M1325 725V750M1325 725H1350M1300 725V750M1300 725H1275M1300 300H1325M1300 300V325M1300 300V275M1300 300H1275M1325 300V325M1325 300V275M1325 300H1350M1325 325H1300M1325 325V350M1325 325H1350M1300 325V350M1300 325H1275M925 450H900M925 450V475M925 450H950M900 450V475M900 450H875M925 50H900M925 50V75M925 50H950M900 50V75M900 50H875M1325 450H1300M1325 450V475M1325 450H1350M1300 450V475M1300 450H1275M1325 50H1300M1325 50V75M1325 50H1350M1300 50V75M1300 50H1275M925 650H900M925 650V675M925 650H950M900 650V675M900 650H875M925 250H900M925 250V275M925 250H950M900 250V275M900 250H875M1325 650H1300M1325 650V675M1325 650H1350M1300 650V675M1300 650H1275M1325 250H1300M1325 250V275M1325 250H1350M1300 250V275M1300 250H1275M925 550H900M925 550V575M925 550H950M900 550V575M900 550H875M925 150H900M925 150V175M925 150H950M900 150V175M900 150H875M1325 550H1300M1325 550V575M1325 550H1350M1300 550V575M1300 550H1275M1325 150H1300M1325 150V175M1325 150H1350M1300 150V175M1300 150H1275M925 750H900M925 750V775M925 750H950M900 750V775M900 750H875M925 350H900M925 350V375M925 350H950M900 350V375M900 350H875M1325 750H1300M1325 750V775M1325 750H1350M1300 750V775M1300 750H1275M1325 350H1300M1325 350V375M1325 350H1350M1300 350V375M1300 350H1275M925 475H900M925 475H950M900 475H875M925 75H900M925 75H950M900 75H875M1325 475H1300M1325 475H1350M1300 475H1275M1325 75H1300M1325 75H1350M1300 75H1275M925 675H900M925 675H950M900 675H875M925 275H900M925 275H950M900 275H875M1325 675H1300M1325 675H1350M1300 675H1275M1325 275H1300M1325 275H1350M1300 275H1275M925 575H900M925 575H950M900 575H875M925 175H900M925 175H950M900 175H875M1325 575H1300M1325 575H1350M1300 575H1275M1325 175H1300M1325 175H1350M1300 175H1275M925 775H900M925 775V800M925 775H950M900 775V800M900 775H875M925 375H900M925 375H950M900 375H875M1325 775H1300M1325 775V800M1325 775H1350M1300 775V800M1300 775H1275M1325 375H1300M1325 375H1350M1300 375H1275M925 800H900M925 800H950M900 800H875M1325 800H1300M1325 800H1350M1300 800H1275M1100 400H1125M1100 400V425M1100 400V375M1100 400H1075M1125 400V425M1125 400V375M1125 400H1150M1125 425H1100M1125 425V450M1125 425H1150M1100 425V450M1100 425H1075M1100 0H1125M1100 0V25M1100 0H1075M1125 0V25M1125 0H1150M1125 25H1100M1125 25V50M1125 25H1150M1100 25V50M1100 25H1075M1500 400H1525M1500 400V425M1500 400V375M1500 400H1475M1525 400V425M1525 400V375M1525 400H1550M1525 425H1500M1525 425V450M1525 425H1550M1500 425V450M1500 425H1475M1500 0H1525M1500 0V25M1500 0H1475M1525 0V25M1525 0H1550M1525 25H1500M1525 25V50M1525 25H1550M1500 25V50M1500 25H1475M1100 600H1125M1100 600V625M1100 600V575M1100 600H1075M1125 600V625M1125 600V575M1125 600H1150M1125 625H1100M1125 625V650M1125 625H1150M1100 625V650M1100 625H1075M1100 200H1125M1100 200V225M1100 200V175M1100 200H1075M1125 200V225M1125 200V175M1125 200H1150M1125 225H1100M1125 225V250M1125 225H1150M1100 225V250M1100 225H1075M1500 600H1525M1500 600V625M1500 600V575M1500 600H1475M1525 600V625M1525 600V575M1525 600H1550M1525 625H1500M1525 625V650M1525 625H1550M1500 625V650M1500 625H1475M1500 200H1525M1500 200V225M1500 200V175M1500 200H1475M1525 200V225M1525 200V175M1525 200H1550M1525 225H1500M1525 225V250M1525 225H1550M1500 225V250M1500 225H1475M1100 500H1125M1100 500V525M1100 500V475M1100 500H1075M1125 500V525M1125 500V475M1125 500H1150M1125 525H1100M1125 525V550M1125 525H1150M1100 525V550M1100 525H1075M1100 100H1125M1100 100V125M1100 100V75M1100 100H1075M1125 100V125M1125 100V75M1125 100H1150M1125 125H1100M1125 125V150M1125 125H1150M1100 125V150M1100 125H1075M1500 500H1525M1500 500V525M1500 500V475M1500 500H1475M1525 500V525M1525 500V475M1525 500H1550M1525 525H1500M1525 525V550M1525 525H1550M1500 525V550M1500 525H1475M1500 100H1525M1500 100V125M1500 100V75M1500 100H1475M1525 100V125M1525 100V75M1525 100H1550M1525 125H1500M1525 125V150M1525 125H1550M1500 125V150M1500 125H1475M1100 700H1125M1100 700V725M1100 700V675M1100 700H1075M1125 700V725M1125 700V675M1125 700H1150M1125 725H1100M1125 725V750M1125 725H1150M1100 725V750M1100 725H1075M1100 300H1125M1100 300V325M1100 300V275M1100 300H1075M1125 300V325M1125 300V275M1125 300H1150M1125 325H1100M1125 325V350M1125 325H1150M1100 325V350M1100 325H1075M1500 700H1525M1500 700V725M1500 700V675M1500 700H1475M1525 700V725M1525 700V675M1525 700H1550M1525 725H1500M1525 725V750M1525 725H1550M1500 725V750M1500 725H1475M1500 300H1525M1500 300V325M1500 300V275M1500 300H1475M1525 300V325M1525 300V275M1525 300H1550M1525 325H1500M1525 325V350M1525 325H1550M1500 325V350M1500 325H1475M1125 450H1100M1125 450V475M1125 450H1150M1100 450V475M1100 450H1075M1125 50H1100M1125 50V75M1125 50H1150M1100 50V75M1100 50H1075M1525 450H1500M1525 450V475M1525 450H1550M1500 450V475M1500 450H1475M1525 50H1500M1525 50V75M1525 50H1550M1500 50V75M1500 50H1475M1125 650H1100M1125 650V675M1125 650H1150M1100 650V675M1100 650H1075M1125 250H1100M1125 250V275M1125 250H1150M1100 250V275M1100 250H1075M1525 650H1500M1525 650V675M1525 650H1550M1500 650V675M1500 650H1475M1525 250H1500M1525 250V275M1525 250H1550M1500 250V275M1500 250H1475M1125 550H1100M1125 550V575M1125 550H1150M1100 550V575M1100 550H1075M1125 150H1100M1125 150V175M1125 150H1150M1100 150V175M1100 150H1075M1525 550H1500M1525 550V575M1525 550H1550M1500 550V575M1500 550H1475M1525 150H1500M1525 150V175M1525 150H1550M1500 150V175M1500 150H1475M1125 750H1100M1125 750V775M1125 750H1150M1100 750V775M1100 750H1075M1125 350H1100M1125 350V375M1125 350H1150M1100 350V375M1100 350H1075M1525 750H1500M1525 750V775M1525 750H1550M1500 750V775M1500 750H1475M1525 350H1500M1525 350V375M1525 350H1550M1500 350V375M1500 350H1475M1125 475H1100M1125 475H1150M1100 475H1075M1125 75H1100M1125 75H1150M1100 75H1075M1525 475H1500M1525 475H1550M1500 475H1475M1525 75H1500M1525 75H1550M1500 75H1475M1125 675H1100M1125 675H1150M1100 675H1075M1125 275H1100M1125 275H1150M1100 275H1075M1525 675H1500M1525 675H1550M1500 675H1475M1525 275H1500M1525 275H1550M1500 275H1475M1125 575H1100M1125 575H1150M1100 575H1075M1125 175H1100M1125 175H1150M1100 175H1075M1525 575H1500M1525 575H1550M1500 575H1475M1525 175H1500M1525 175H1550M1500 175H1475M1125 775H1100M1125 775V800M1125 775H1150M1100 775V800M1100 775H1075M1125 375H1100M1125 375H1150M1100 375H1075M1525 775H1500M1525 775V800M1525 775H1550M1500 775V800M1500 775H1475M1525 375H1500M1525 375H1550M1500 375H1475M1125 800H1100M1125 800H1150M1100 800H1075M1525 800H1500M1525 800H1550M1500 800H1475M850 400V425M850 400V375M850 400H875M850 425V450M850 425H875M850 0V25M850 0H875M850 25V50M850 25H875M1250 400V425M1250 400V375M1250 400H1275M1250 425V450M1250 425H1275M1250 0V25M1250 0H1275M1250 25V50M1250 25H1275M850 600V625M850 600V575M850 600H875M850 625V650M850 625H875M850 200V225M850 200V175M850 200H875M850 225V250M850 225H875M1250 600V625M1250 600V575M1250 600H1275M1250 625V650M1250 625H1275M1250 200V225M1250 200V175M1250 200H1275M1250 225V250M1250 225H1275M850 500V525M850 500V475M850 500H875M850 525V550M850 525H875M850 100V125M850 100V75M850 100H875M850 125V150M850 125H875M1250 500V525M1250 500V475M1250 500H1275M1250 525V550M1250 525H1275M1250 100V125M1250 100V75M1250 100H1275M1250 125V150M1250 125H1275M850 700V725M850 700V675M850 700H875M850 725V750M850 725H875M850 300V325M850 300V275M850 300H875M850 325V350M850 325H875M1250 700V725M1250 700V675M1250 700H1275M1250 725V750M1250 725H1275M1250 300V325M1250 300V275M1250 300H1275M1250 325V350M1250 325H1275M850 450V475M850 450H875M850 50V75M850 50H875M1250 450V475M1250 450H1275M1250 50V75M1250 50H1275M850 650V675M850 650H875M850 250V275M850 250H875M1250 650V675M1250 650H1275M1250 250V275M1250 250H1275M850 550V575M850 550H875M850 150V175M850 150H875M1250 550V575M1250 550H1275M1250 150V175M1250 150H1275M850 750V775M850 750H875M850 350V375M850 350H875M1250 750V775M1250 750H1275M1250 350V375M1250 350H1275M850 475H875M850 75H875M1250 475H1275M1250 75H1275M850 675H875M850 275H875M1250 675H1275M1250 275H1275M850 575H875M850 175H875M1250 575H1275M1250 175H1275M850 775V800M850 775H875M850 375H875M1250 775V800M1250 775H1275M1250 375H1275M850 800H875M1250 800H1275M1050 400V425M1050 400V375M1050 400H1075M1050 425V450M1050 425H1075M1050 0V25M1050 0H1075M1050 25V50M1050 25H1075M1450 400V425M1450 400V375M1450 400H1475M1450 425V450M1450 425H1475M1450 0V25M1450 0H1475M1450 25V50M1450 25H1475M1050 600V625M1050 600V575M1050 600H1075M1050 625V650M1050 625H1075M1050 200V225M1050 200V175M1050 200H1075M1050 225V250M1050 225H1075M1450 600V625M1450 600V575M1450 600H1475M1450 625V650M1450 625H1475M1450 200V225M1450 200V175M1450 200H1475M1450 225V250M1450 225H1475M1050 500V525M1050 500V475M1050 500H1075M1050 525V550M1050 525H1075M1050 100V125M1050 100V75M1050 100H1075M1050 125V150M1050 125H1075M1450 500V525M1450 500V475M1450 500H1475M1450 525V550M1450 525H1475M1450 100V125M1450 100V75M1450 100H1475M1450 125V150M1450 125H1475M1050 700V725M1050 700V675M1050 700H1075M1050 725V750M1050 725H1075M1050 300V325M1050 300V275M1050 300H1075M1050 325V350M1050 325H1075M1450 700V725M1450 700V675M1450 700H1475M1450 725V750M1450 725H1475M1450 300V325M1450 300V275M1450 300H1475M1450 325V350M1450 325H1475M1050 450V475M1050 450H1075M1050 50V75M1050 50H1075M1450 450V475M1450 450H1475M1450 50V75M1450 50H1475M1050 650V675M1050 650H1075M1050 250V275M1050 250H1075M1450 650V675M1450 650H1475M1450 250V275M1450 250H1475M1050 550V575M1050 550H1075M1050 150V175M1050 150H1075M1450 550V575M1450 550H1475M1450 150V175M1450 150H1475M1050 750V775M1050 750H1075M1050 350V375M1050 350H1075M1450 750V775M1450 750H1475M1450 350V375M1450 350H1475M1050 475H1075M1050 75H1075M1450 475H1475M1450 75H1475M1050 675H1075M1050 275H1075M1450 675H1475M1450 275H1475M1050 575H1075M1050 175H1075M1450 575H1475M1450 175H1475M1050 775V800M1050 775H1075M1050 375H1075M1450 775V800M1450 775H1475M1450 375H1475M1050 800H1075M1450 800H1475M950 400V425M950 400V375M950 400H975M950 425V450M950 425H975M950 0V25M950 0H975M950 25V50M950 25H975M1350 400V425M1350 400V375M1350 400H1375M1350 425V450M1350 425H1375M1350 0V25M1350 0H1375M1350 25V50M1350 25H1375M950 600V625M950 600V575M950 600H975M950 625V650M950 625H975M950 200V225M950 200V175M950 200H975M950 225V250M950 225H975M1350 600V625M1350 600V575M1350 600H1375M1350 625V650M1350 625H1375M1350 200V225M1350 200V175M1350 200H1375M1350 225V250M1350 225H1375M950 500V525M950 500V475M950 500H975M950 525V550M950 525H975M950 100V125M950 100V75M950 100H975M950 125V150M950 125H975M1350 500V525M1350 500V475M1350 500H1375M1350 525V550M1350 525H1375M1350 100V125M1350 100V75M1350 100H1375M1350 125V150M1350 125H1375M950 700V725M950 700V675M950 700H975M950 725V750M950 725H975M950 300V325M950 300V275M950 300H975M950 325V350M950 325H975M1350 700V725M1350 700V675M1350 700H1375M1350 725V750M1350 725H1375M1350 300V325M1350 300V275M1350 300H1375M1350 325V350M1350 325H1375M950 450V475M950 450H975M950 50V75M950 50H975M1350 450V475M1350 450H1375M1350 50V75M1350 50H1375M950 650V675M950 650H975M950 250V275M950 250H975M1350 650V675M1350 650H1375M1350 250V275M1350 250H1375M950 550V575M950 550H975M950 150V175M950 150H975M1350 550V575M1350 550H1375M1350 150V175M1350 150H1375M950 750V775M950 750H975M950 350V375M950 350H975M1350 750V775M1350 750H1375M1350 350V375M1350 350H1375M950 475H975M950 75H975M1350 475H1375M1350 75H1375M950 675H975M950 275H975M1350 675H1375M1350 275H1375M950 575H975M950 175H975M1350 575H1375M1350 175H1375M950 775V800M950 775H975M950 375H975M1350 775V800M1350 775H1375M1350 375H1375M950 800H975M1350 800H1375M1150 400V425M1150 400V375M1150 400H1175M1150 425V450M1150 425H1175M1150 0V25M1150 0H1175M1150 25V50M1150 25H1175M1550 400V425M1550 400V375M1550 400H1575M1550 425V450M1550 425H1575M1550 0V25M1550 0H1575M1550 25V50M1550 25H1575M1150 600V625M1150 600V575M1150 600H1175M1150 625V650M1150 625H1175M1150 200V225M1150 200V175M1150 200H1175M1150 225V250M1150 225H1175M1550 600V625M1550 600V575M1550 600H1575M1550 625V650M1550 625H1575M1550 200V225M1550 200V175M1550 200H1575M1550 225V250M1550 225H1575M1150 500V525M1150 500V475M1150 500H1175M1150 525V550M1150 525H1175M1150 100V125M1150 100V75M1150 100H1175M1150 125V150M1150 125H1175M1550 500V525M1550 500V475M1550 500H1575M1550 525V550M1550 525H1575M1550 100V125M1550 100V75M1550 100H1575M1550 125V150M1550 125H1575M1150 700V725M1150 700V675M1150 700H1175M1150 725V750M1150 725H1175M1150 300V325M1150 300V275M1150 300H1175M1150 325V350M1150 325H1175M1550 700V725M1550 700V675M1550 700H1575M1550 725V750M1550 725H1575M1550 300V325M1550 300V275M1550 300H1575M1550 325V350M1550 325H1575M1150 450V475M1150 450H1175M1150 50V75M1150 50H1175M1550 450V475M1550 450H1575M1550 50V75M1550 50H1575M1150 650V675M1150 650H1175M1150 250V275M1150 250H1175M1550 650V675M1550 650H1575M1550 250V275M1550 250H1575M1150 550V575M1150 550H1175M1150 150V175M1150 150H1175M1550 550V575M1550 550H1575M1550 150V175M1550 150H1575M1150 750V775M1150 750H1175M1150 350V375M1150 350H1175M1550 750V775M1550 750H1575M1550 350V375M1550 350H1575M1150 475H1175M1150 75H1175M1550 475H1575M1550 75H1575M1150 675H1175M1150 275H1175M1550 675H1575M1550 275H1575M1150 575H1175M1150 175H1175M1550 575H1575M1550 175H1575M1150 775V800M1150 775H1175M1150 375H1175M1550 775V800M1550 775H1575M1550 375H1575M1150 800H1175M1550 800H1575M875 400V425M875 400V375M875 425V450M875 0V25M875 25V50M1275 400V425M1275 400V375M1275 425V450M1275 0V25M1275 25V50M875 600V625M875 600V575M875 625V650M875 200V225M875 200V175M875 225V250M1275 600V625M1275 600V575M1275 625V650M1275 200V225M1275 200V175M1275 225V250M875 500V525M875 500V475M875 525V550M875 100V125M875 100V75M875 125V150M1275 500V525M1275 500V475M1275 525V550M1275 100V125M1275 100V75M1275 125V150M875 700V725M875 700V675M875 725V750M875 300V325M875 300V275M875 325V350M1275 700V725M1275 700V675M1275 725V750M1275 300V325M1275 300V275M1275 325V350M875 450V475M875 50V75M1275 450V475M1275 50V75M875 650V675M875 250V275M1275 650V675M1275 250V275M875 550V575M875 150V175M1275 550V575M1275 150V175M875 750V775M875 350V375M1275 750V775M1275 350V375M875 775V800M1275 775V800M1075 400V425M1075 400V375M1075 425V450M1075 0V25M1075 25V50M1475 400V425M1475 400V375M1475 425V450M1475 0V25M1475 25V50M1075 600V625M1075 600V575M1075 625V650M1075 200V225M1075 200V175M1075 225V250M1475 600V625M1475 600V575M1475 625V650M1475 200V225M1475 200V175M1475 225V250M1075 500V525M1075 500V475M1075 525V550M1075 100V125M1075 100V75M1075 125V150M1475 500V525M1475 500V475M1475 525V550M1475 100V125M1475 100V75M1475 125V150M1075 700V725M1075 700V675M1075 725V750M1075 300V325M1075 300V275M1075 325V350M1475 700V725M1475 700V675M1475 725V750M1475 300V325M1475 300V275M1475 325V350M1075 450V475M1075 50V75M1475 450V475M1475 50V75M1075 650V675M1075 250V275M1475 650V675M1475 250V275M1075 550V575M1075 150V175M1475 550V575M1475 150V175M1075 750V775M1075 350V375M1475 750V775M1475 350V375M1075 775V800M1475 775V800M975 400V425M975 400V375M975 425V450M975 0V25M975 25V50M1375 400V425M1375 400V375M1375 425V450M1375 0V25M1375 25V50M975 600V625M975 600V575M975 625V650M975 200V225M975 200V175M975 225V250M1375 600V625M1375 600V575M1375 625V650M1375 200V225M1375 200V175M1375 225V250M975 500V525M975 500V475M975 525V550M975 100V125M975 100V75M975 125V150M1375 500V525M1375 500V475M1375 525V550M1375 100V125M1375 100V75M1375 125V150M975 700V725M975 700V675M975 725V750M975 300V325M975 300V275M975 325V350M1375 700V725M1375 700V675M1375 725V750M1375 300V325M1375 300V275M1375 325V350M975 450V475M975 50V75M1375 450V475M1375 50V75M975 650V675M975 250V275M1375 650V675M1375 250V275M975 550V575M975 150V175M1375 550V575M1375 150V175M975 750V775M975 350V375M1375 750V775M1375 350V375M975 775V800M1375 775V800M1175 400V425M1175 400V375M1175 425V450M1175 0V25M1175 25V50M1575 400V425M1575 400V375M1575 400H1600M1575 425V450M1575 425H1600M1575 0V25M1575 0H1600V25M1575 25V50M1575 25H1600M1175 600V625M1175 600V575M1175 625V650M1175 200V225M1175 200V175M1175 225V250M1575 600V625M1575 600V575M1575 600H1600M1575 625V650M1575 625H1600M1575 200V225M1575 200V175M1575 200H1600M1575 225V250M1575 225H1600M1175 500V525M1175 500V475M1175 525V550M1175 100V125M1175 100V75M1175 125V150M1575 500V525M1575 500V475M1575 500H1600M1575 525V550M1575 525H1600M1575 100V125M1575 100V75M1575 100H1600M1575 125V150M1575 125H1600M1175 700V725M1175 700V675M1175 725V750M1175 300V325M1175 300V275M1175 325V350M1575 700V725M1575 700V675M1575 700H1600M1575 725V750M1575 725H1600M1575 300V325M1575 300V275M1575 300H1600M1575 325V350M1575 325H1600M1175 450V475M1175 50V75M1575 450V475M1575 450H1600M1575 50V75M1575 50H1600M1175 650V675M1175 250V275M1575 650V675M1575 650H1600M1575 250V275M1575 250H1600M1175 550V575M1175 150V175M1575 550V575M1575 550H1600M1575 150V175M1575 150H1600M1175 750V775M1175 350V375M1575 750V775M1575 750H1600M1575 350V375M1575 350H1600M1575 475H1600M1575 75H1600M1575 675H1600M1575 275H1600M1575 575H1600M1575 175H1600M1175 775V800M1575 775V800M1575 775H1600M1575 375H1600M1575 800H1600V775M1600 400V425M1600 400V375M1600 425V450M1600 25V50M1600 600V625M1600 600V575M1600 625V650M1600 200V225M1600 200V175M1600 225V250M1600 500V525M1600 500V475M1600 525V550M1600 100V125M1600 100V75M1600 125V150M1600 700V725M1600 700V675M1600 725V750M1600 300V325M1600 300V275M1600 325V350M1600 450V475M1600 50V75M1600 650V675M1600 250V275M1600 550V575M1600 150V175M1600 750V775M1600 350V375" stroke="url(#paint0_linear_96_5680)"/>
<g opacity="0.3" filter="url(#filter0_f_96_5680)">
<ellipse cx="953.5" cy="230.604" rx="229.5" ry="67" fill="#FED601"/>
</g>
<g opacity="0.6" filter="url(#filter1_f_96_5680)">
<rect x="-93" y="-420.644" width="294.656" height="1473.1" transform="rotate(-45.0008 -93 -420.644)" fill="url(#paint1_radial_96_5680)"/>
<rect x="860.021" y="115.715" width="294.62" height="1473.1" transform="rotate(-45.0008 860.021 115.715)" fill="url(#paint2_radial_96_5680)"/>
</g>
</g>
<defs>
<filter id="filter0_f_96_5680" x="504" y="-56.3956" width="899" height="574" filterUnits="userSpaceOnUse" color-interpolation-filters="sRGB">
<feFlood flood-opacity="0" result="BackgroundImageFix"/>
<feBlend mode="normal" in="SourceGraphic" in2="BackgroundImageFix" result="shape"/>
<feGaussianBlur stdDeviation="110" result="effect1_foregroundBlur_96_5680"/>
</filter>
<filter id="filter1_f_96_5680" x="-123" y="-659" width="2263" height="1846.34" filterUnits="userSpaceOnUse" color-interpolation-filters="sRGB">
<feFlood flood-opacity="0" result="BackgroundImageFix"/>
<feBlend mode="normal" in="SourceGraphic" in2="BackgroundImageFix" result="shape"/>
<feGaussianBlur stdDeviation="15" result="effect1_foregroundBlur_96_5680"/>
</filter>
<linearGradient id="paint0_linear_96_5680" x1="800" y1="0" x2="800" y2="416.5" gradientUnits="userSpaceOnUse">
<stop stop-color="#1D1E25"/>
<stop offset="1" stop-color="#12131A" stop-opacity="0"/>
</linearGradient>
<radialGradient id="paint1_radial_96_5680" cx="0" cy="0" r="1" gradientUnits="userSpaceOnUse" gradientTransform="translate(346.177 378.465) rotate(-160.923) scale(441.429 441.389)">
<stop stop-color="#BE8900"/>
<stop offset="1" stop-color="#12131A" stop-opacity="0"/>
</radialGradient>
<radialGradient id="paint2_radial_96_5680" cx="0" cy="0" r="1" gradientUnits="userSpaceOnUse" gradientTransform="translate(777.808 605.209) rotate(-21.2729) scale(447.215 447.215)">
<stop stop-color="#BEAB00"/>
<stop offset="1" stop-color="#12131A" stop-opacity="0"/>
</radialGradient>
</defs>
</svg>
