<svg width="42" height="19" viewBox="0 0 42 19" fill="none" xmlns="http://www.w3.org/2000/svg">
<path d="M3 8.35817V5.23682H6.23528V5.94164H4.31808V6.34439H5.07697V7.1499H4.31808V7.55266H6.23528V8.35817H3Z" fill="white"/>
<path d="M19.8852 8.35817V5.23682H23.1204V5.94164H21.2032V6.34439H21.9621V7.1499H21.2032V7.55266H23.1204V8.35817H19.8852Z" fill="white"/>
<path d="M6.43287 8.35817V7.55266H8.27019V7.09956H6.43287V5.99198L7.032 5.23682H9.58827V5.94164H7.67107V6.34439H9.58827V7.90507L9.22879 8.35817H6.43287Z" fill="white"/>
<path d="M12.9414 5.23682H9.78605V8.35817H12.9414V7.55266H11.0242V5.94164H12.9414V5.23682Z" fill="white"/>
<path fill-rule="evenodd" clip-rule="evenodd" d="M13.139 8.35817H14.4171V7.95542H15.0562V8.35817H16.3343V5.23682H13.4984L13.139 5.68992V8.35817ZM14.3771 5.8912H15.0969V7.20015H14.3771V5.8912Z" fill="white"/>
<path fill-rule="evenodd" clip-rule="evenodd" d="M16.532 5.23682H19.6874V7.40163H17.7702V8.35817H16.532V5.23682ZM17.7304 5.84088H18.4501V6.59604H17.7304V5.84088Z" fill="white"/>
<path d="M24.7481 8.35817V5.23682H27.9834V5.94164H26.0662V6.34439H26.8251V7.1499H26.0662V8.35817H24.7481Z" fill="white"/>
<path fill-rule="evenodd" clip-rule="evenodd" d="M28.1814 5.23682H31.3368V7.40163H30.5779L31.3368 8.35817H30.1784L29.4196 7.40163V8.35817H28.1814V5.23682ZM29.3795 5.84088H30.0993V6.59604H29.3795V5.84088Z" fill="white"/>
<path fill-rule="evenodd" clip-rule="evenodd" d="M31.5343 8.35817H34.3302L34.6897 7.90507V5.23682H32.1334L31.5343 5.99198V8.35817ZM32.7325 5.84088H33.4923V7.60293H32.7325V5.84088Z" fill="white"/>
<path d="M36.0857 5.23682H34.8875V8.35817H36.1656V7.40163L36.9245 8.35817H37.963L38.7219 7.40163V8.35817H40V5.23682H38.8017L37.4437 6.94853L36.0857 5.23682Z" fill="white"/>
<path fill-rule="evenodd" clip-rule="evenodd" d="M27.5406 14.7105H32.3961L33.0204 13.9207V9.26938H28.5811L27.5406 10.5858V14.7105ZM29.5084 10.3225H30.8279V13.3941H29.5084V10.3225Z" fill="white"/>
<path d="M33.3946 12.4955V9.26938H35.5487V12.2066L36.1344 12.953L36.7202 12.2066V9.26938H38.8743V12.4955L37.1359 14.7105H35.133L33.3946 12.4955Z" fill="white"/>
<path fill-rule="evenodd" clip-rule="evenodd" d="M10.0171 14.7105H12.2241V14.0084H13.3276V14.7105H15.5346V9.26938H10.6378L10.0171 10.0592V14.7105ZM12.1741 10.4102H13.417V12.692H12.1741V10.4102Z" fill="white"/>
<path d="M9.64313 10.425V9.26938H4.12558V10.425H5.7884V14.7105H7.9803V10.425H9.64313Z" fill="white"/>
<path fill-rule="evenodd" clip-rule="evenodd" d="M15.9086 9.26938H21.3506V13.0431H20.0418L21.3506 14.7105H19.3529L18.0441 13.0431V14.7105H15.9086V9.26938ZM18.013 10.3225H19.2544V11.6389H18.013V10.3225Z" fill="white"/>
<path d="M23.8602 14.7105V13.0431L25.169 14.7105H27.1667L24.8992 11.8216L26.9023 9.26938H24.6347L23.8789 10.2324V9.26938H21.7247V14.7105H23.8602Z" fill="white"/>
</svg>
