<svg width="24" height="24" viewBox="0 0 24 24" fill="none" xmlns="http://www.w3.org/2000/svg">
<path d="M4.50935 10.4343C4.74327 8.79689 4.86023 7.97818 5.42416 7.48909C5.98809 7 6.81511 7 8.46915 7H8.99997H15H15.5308C17.1849 7 18.0119 7 18.5758 7.48909C19.1397 7.97818 19.2567 8.79689 19.4906 10.4343L20.3478 16.4343C20.6512 18.5586 20.803 19.6208 20.2049 20.3104C19.6068 21 18.5339 21 16.388 21H16H7.99997H7.61201C5.46611 21 4.39317 21 3.79508 20.3104C3.197 19.6208 3.34874 18.5586 3.65221 16.4343L4.50935 10.4343Z" stroke="#585B68" stroke-width="2" stroke-linejoin="round"/>
<path d="M9 7V5C9 3.89543 9.89543 3 11 3H13C14.1046 3 15 3.89543 15 5V7" stroke="#585B68" stroke-width="2" stroke-linecap="round" stroke-linejoin="round"/>
</svg>
