<svg width="19" height="19" viewBox="0 0 19 19" fill="none" xmlns="http://www.w3.org/2000/svg">
<path d="M16.8229 9.5C16.8229 11.3367 16.1421 13.0308 15.0179 14.3054C13.8937 15.5958 12.3262 16.4904 10.5529 16.7358C10.2125 16.7913 9.86415 16.815 9.49998 16.815C9.13581 16.815 8.7954 16.7913 8.44706 16.7358C6.67373 16.4904 5.10623 15.5958 3.98206 14.3054C2.8579 13.0308 2.17706 11.3367 2.17706 9.5C2.17706 7.66334 2.8579 5.96917 3.98206 4.69458C5.10623 3.40417 6.67373 2.50958 8.44706 2.26417C8.78748 2.20875 9.13581 2.185 9.49998 2.185C9.86415 2.185 10.2046 2.20875 10.5529 2.26417C12.3262 2.50958 13.8937 3.40417 15.0179 4.69458C16.1421 5.96917 16.8229 7.66334 16.8229 9.5Z" stroke="#585B68" stroke-width="1.5" stroke-linecap="round" stroke-linejoin="round"/>
<path d="M9.23873 16.7437C8.73206 16.2133 6.33331 13.5929 6.33331 9.5C6.33331 5.40708 8.73206 2.78667 9.23873 2.25625M9.76123 16.7437C10.2679 16.2133 12.6666 13.5929 12.6666 9.5C12.6666 5.40708 10.2679 2.78667 9.76123 2.25625M2.17706 9.5H9.49998H16.8229" stroke="#585B68" stroke-width="1.5" stroke-linecap="round" stroke-linejoin="round"/>
</svg>
