<svg width="19" height="19" viewBox="0 0 19 19" fill="none" xmlns="http://www.w3.org/2000/svg">
<path d="M16.8236 9.50006C16.8236 11.3367 16.1427 13.0309 15.0186 14.3055C13.8944 15.5959 12.3269 16.4905 10.5536 16.7359C10.2132 16.7913 9.86482 16.8151 9.50065 16.8151C9.13648 16.8151 8.79607 16.7913 8.44773 16.7359C6.6744 16.4905 5.1069 15.5959 3.98273 14.3055C2.85857 13.0309 2.17773 11.3367 2.17773 9.50006C2.17773 7.66339 2.85857 5.96923 3.98273 4.69464C5.1069 3.40423 6.6744 2.50964 8.44773 2.26423C8.78815 2.20881 9.13648 2.18506 9.50065 2.18506C9.86482 2.18506 10.2052 2.20881 10.5536 2.26423C12.3269 2.50964 13.8944 3.40423 15.0186 4.69464C16.1427 5.96923 16.8236 7.66339 16.8236 9.50006Z" stroke="#585B68" stroke-width="1.5" stroke-linecap="round" stroke-linejoin="round"/>
<path d="M9.2394 16.7437C8.73273 16.2133 6.33398 13.5929 6.33398 9.49997C6.33398 5.40706 8.73273 2.78664 9.2394 2.25623M9.7619 16.7437C10.2686 16.2133 12.6673 13.5929 12.6673 9.49997C12.6673 5.40706 10.2686 2.78664 9.7619 2.25623M2.17773 9.49997H9.50065H16.8236" stroke="#585B68" stroke-width="1.5" stroke-linecap="round" stroke-linejoin="round"/>
</svg>
