<svg width="46" height="46" viewBox="0 0 46 46" fill="none" xmlns="http://www.w3.org/2000/svg">
<circle cx="23" cy="23" r="22.5" fill="#1D1E26"/>
<circle cx="23" cy="23" r="22.5" fill="url(#paint0_linear_31_38)"/>
<circle cx="23" cy="23" r="22.5" fill="url(#paint1_linear_31_38)"/>
<circle cx="23" cy="23" r="22.5" stroke="url(#paint2_linear_31_38)"/>
<g filter="url(#filter0_dii_31_38)">
<path d="M18.7867 22.4534C21.56 22.4534 23.8133 20.2 23.8133 17.4267C23.8133 14.6534 21.56 12.4 18.7867 12.4C16.0133 12.4 13.76 14.6534 13.76 17.4267C13.76 20.2 16.0133 22.4534 18.7867 22.4534Z" fill="#30333E"/>
<path d="M18.7867 22.4534C21.56 22.4534 23.8133 20.2 23.8133 17.4267C23.8133 14.6534 21.56 12.4 18.7867 12.4C16.0133 12.4 13.76 14.6534 13.76 17.4267C13.76 20.2 16.0133 22.4534 18.7867 22.4534Z" fill="url(#paint3_radial_31_38)"/>
</g>
<g filter="url(#filter1_dii_31_38)">
<path d="M28.5467 32.6V30.3067C28.5467 27.7477 26.8946 25.575 24.6026 24.8009C24.6009 24.8003 24.5966 24.7969 24.5951 24.7959C24.5884 24.7914 24.5787 24.7971 24.5711 24.7944C23.9889 24.5848 23.3676 24.48 22.72 24.48H15.4933C12.28 24.48 9.66666 27.0934 9.66666 30.3067V32.6C9.66666 33.1467 10.12 33.6 10.6667 33.6H27.5467C28.1067 33.6 28.5467 33.1467 28.5467 32.6Z" fill="#9296A9"/>
<path d="M28.5467 32.6V30.3067C28.5467 27.7477 26.8946 25.575 24.6026 24.8009C24.6009 24.8003 24.5966 24.7969 24.5951 24.7959C24.5884 24.7914 24.5787 24.7971 24.5711 24.7944C23.9889 24.5848 23.3676 24.48 22.72 24.48H15.4933C12.28 24.48 9.66666 27.0934 9.66666 30.3067V32.6C9.66666 33.1467 10.12 33.6 10.6667 33.6H27.5467C28.1067 33.6 28.5467 33.1467 28.5467 32.6Z" fill="url(#paint4_radial_31_38)"/>
</g>
<g filter="url(#filter2_dii_31_38)">
<path d="M32.8267 18.28C32.8267 20.4817 31.0419 22.2667 28.84 22.2667C26.6383 22.2667 24.8533 20.4817 24.8533 18.28C24.8533 16.0782 26.6383 14.2933 28.84 14.2933C31.0419 14.2933 32.8267 16.0782 32.8267 18.28Z" fill="#30333E"/>
<path d="M32.8267 18.28C32.8267 20.4817 31.0419 22.2667 28.84 22.2667C26.6383 22.2667 24.8533 20.4817 24.8533 18.28C24.8533 16.0782 26.6383 14.2933 28.84 14.2933C31.0419 14.2933 32.8267 16.0782 32.8267 18.28Z" fill="url(#paint5_radial_31_38)"/>
</g>
<g filter="url(#filter3_dii_31_38)">
<path d="M36.28 31.4533V29.5733C36.28 29.2667 36.2533 28.9733 36.1867 28.6933C36.16 28.5467 36.12 28.4 36.08 28.2533C35.9467 27.8133 35.7467 27.4133 35.4933 27.04C35.5067 27.0267 35.5067 27.0267 35.4933 27.0267C35.4 26.88 35.2933 26.7467 35.1867 26.6267C34.5333 25.88 33.6533 25.32 32.64 25.1067C32.4667 25.0667 32.2933 25.04 32.12 25.0267C31.9867 25 31.8533 25 31.7067 25H28C28.24 25.2133 28.4666 25.4666 28.6933 25.72L28.6933 25.72C29.0133 26.1067 29.2933 26.5333 29.5467 26.9867C30.1467 28.0933 30.4933 29.3733 30.4933 30.72V32.2533H35.48C35.92 32.2533 36.28 31.8933 36.28 31.4533Z" fill="#30333E"/>
<path d="M36.28 31.4533V29.5733C36.28 29.2667 36.2533 28.9733 36.1867 28.6933C36.16 28.5467 36.12 28.4 36.08 28.2533C35.9467 27.8133 35.7467 27.4133 35.4933 27.04C35.5067 27.0267 35.5067 27.0267 35.4933 27.0267C35.4 26.88 35.2933 26.7467 35.1867 26.6267C34.5333 25.88 33.6533 25.32 32.64 25.1067C32.4667 25.0667 32.2933 25.04 32.12 25.0267C31.9867 25 31.8533 25 31.7067 25H28C28.24 25.2133 28.4666 25.4666 28.6933 25.72L28.6933 25.72C29.0133 26.1067 29.2933 26.5333 29.5467 26.9867C30.1467 28.0933 30.4933 29.3733 30.4933 30.72V32.2533H35.48C35.92 32.2533 36.28 31.8933 36.28 31.4533Z" fill="url(#paint6_radial_31_38)"/>
</g>
<defs>
<filter id="filter0_dii_31_38" x="12.76" y="12.4" width="12.0533" height="13.0533" filterUnits="userSpaceOnUse" color-interpolation-filters="sRGB">
<feFlood flood-opacity="0" result="BackgroundImageFix"/>
<feColorMatrix in="SourceAlpha" type="matrix" values="0 0 0 0 0 0 0 0 0 0 0 0 0 0 0 0 0 0 127 0" result="hardAlpha"/>
<feOffset dy="2"/>
<feGaussianBlur stdDeviation="0.5"/>
<feComposite in2="hardAlpha" operator="out"/>
<feColorMatrix type="matrix" values="0 0 0 0 0 0 0 0 0 0 0 0 0 0 0 0 0 0 0.05 0"/>
<feBlend mode="normal" in2="BackgroundImageFix" result="effect1_dropShadow_31_38"/>
<feBlend mode="normal" in="SourceGraphic" in2="effect1_dropShadow_31_38" result="shape"/>
<feColorMatrix in="SourceAlpha" type="matrix" values="0 0 0 0 0 0 0 0 0 0 0 0 0 0 0 0 0 0 127 0" result="hardAlpha"/>
<feOffset dy="1"/>
<feGaussianBlur stdDeviation="0.5"/>
<feComposite in2="hardAlpha" operator="arithmetic" k2="-1" k3="1"/>
<feColorMatrix type="matrix" values="0 0 0 0 0.39908 0 0 0 0 0.429688 0 0 0 0 0.529167 0 0 0 0.15 0"/>
<feBlend mode="normal" in2="shape" result="effect2_innerShadow_31_38"/>
<feColorMatrix in="SourceAlpha" type="matrix" values="0 0 0 0 0 0 0 0 0 0 0 0 0 0 0 0 0 0 127 0" result="hardAlpha"/>
<feOffset dy="1"/>
<feGaussianBlur stdDeviation="0.5"/>
<feComposite in2="hardAlpha" operator="arithmetic" k2="-1" k3="1"/>
<feColorMatrix type="matrix" values="0 0 0 0 0.4 0 0 0 0 0.431373 0 0 0 0 0.529412 0 0 0 0.15 0"/>
<feBlend mode="normal" in2="effect2_innerShadow_31_38" result="effect3_innerShadow_31_38"/>
</filter>
<filter id="filter1_dii_31_38" x="8.66666" y="24.48" width="20.88" height="12.12" filterUnits="userSpaceOnUse" color-interpolation-filters="sRGB">
<feFlood flood-opacity="0" result="BackgroundImageFix"/>
<feColorMatrix in="SourceAlpha" type="matrix" values="0 0 0 0 0 0 0 0 0 0 0 0 0 0 0 0 0 0 127 0" result="hardAlpha"/>
<feOffset dy="2"/>
<feGaussianBlur stdDeviation="0.5"/>
<feComposite in2="hardAlpha" operator="out"/>
<feColorMatrix type="matrix" values="0 0 0 0 0 0 0 0 0 0 0 0 0 0 0 0 0 0 0.05 0"/>
<feBlend mode="normal" in2="BackgroundImageFix" result="effect1_dropShadow_31_38"/>
<feBlend mode="normal" in="SourceGraphic" in2="effect1_dropShadow_31_38" result="shape"/>
<feColorMatrix in="SourceAlpha" type="matrix" values="0 0 0 0 0 0 0 0 0 0 0 0 0 0 0 0 0 0 127 0" result="hardAlpha"/>
<feOffset dy="1"/>
<feGaussianBlur stdDeviation="0.5"/>
<feComposite in2="hardAlpha" operator="arithmetic" k2="-1" k3="1"/>
<feColorMatrix type="matrix" values="0 0 0 0 1 0 0 0 0 1 0 0 0 0 1 0 0 0 0.15 0"/>
<feBlend mode="normal" in2="shape" result="effect2_innerShadow_31_38"/>
<feColorMatrix in="SourceAlpha" type="matrix" values="0 0 0 0 0 0 0 0 0 0 0 0 0 0 0 0 0 0 127 0" result="hardAlpha"/>
<feOffset dy="1"/>
<feGaussianBlur stdDeviation="0.5"/>
<feComposite in2="hardAlpha" operator="arithmetic" k2="-1" k3="1"/>
<feColorMatrix type="matrix" values="0 0 0 0 1 0 0 0 0 1 0 0 0 0 1 0 0 0 0.15 0"/>
<feBlend mode="normal" in2="effect2_innerShadow_31_38" result="effect3_innerShadow_31_38"/>
</filter>
<filter id="filter2_dii_31_38" x="23.8533" y="14.2933" width="9.97334" height="10.9733" filterUnits="userSpaceOnUse" color-interpolation-filters="sRGB">
<feFlood flood-opacity="0" result="BackgroundImageFix"/>
<feColorMatrix in="SourceAlpha" type="matrix" values="0 0 0 0 0 0 0 0 0 0 0 0 0 0 0 0 0 0 127 0" result="hardAlpha"/>
<feOffset dy="2"/>
<feGaussianBlur stdDeviation="0.5"/>
<feComposite in2="hardAlpha" operator="out"/>
<feColorMatrix type="matrix" values="0 0 0 0 0 0 0 0 0 0 0 0 0 0 0 0 0 0 0.05 0"/>
<feBlend mode="normal" in2="BackgroundImageFix" result="effect1_dropShadow_31_38"/>
<feBlend mode="normal" in="SourceGraphic" in2="effect1_dropShadow_31_38" result="shape"/>
<feColorMatrix in="SourceAlpha" type="matrix" values="0 0 0 0 0 0 0 0 0 0 0 0 0 0 0 0 0 0 127 0" result="hardAlpha"/>
<feOffset dy="1"/>
<feGaussianBlur stdDeviation="0.5"/>
<feComposite in2="hardAlpha" operator="arithmetic" k2="-1" k3="1"/>
<feColorMatrix type="matrix" values="0 0 0 0 0.39908 0 0 0 0 0.429688 0 0 0 0 0.529167 0 0 0 0.15 0"/>
<feBlend mode="normal" in2="shape" result="effect2_innerShadow_31_38"/>
<feColorMatrix in="SourceAlpha" type="matrix" values="0 0 0 0 0 0 0 0 0 0 0 0 0 0 0 0 0 0 127 0" result="hardAlpha"/>
<feOffset dy="1"/>
<feGaussianBlur stdDeviation="0.5"/>
<feComposite in2="hardAlpha" operator="arithmetic" k2="-1" k3="1"/>
<feColorMatrix type="matrix" values="0 0 0 0 0.4 0 0 0 0 0.431373 0 0 0 0 0.529412 0 0 0 0.15 0"/>
<feBlend mode="normal" in2="effect2_innerShadow_31_38" result="effect3_innerShadow_31_38"/>
</filter>
<filter id="filter3_dii_31_38" x="27" y="25" width="10.28" height="10.2534" filterUnits="userSpaceOnUse" color-interpolation-filters="sRGB">
<feFlood flood-opacity="0" result="BackgroundImageFix"/>
<feColorMatrix in="SourceAlpha" type="matrix" values="0 0 0 0 0 0 0 0 0 0 0 0 0 0 0 0 0 0 127 0" result="hardAlpha"/>
<feOffset dy="2"/>
<feGaussianBlur stdDeviation="0.5"/>
<feComposite in2="hardAlpha" operator="out"/>
<feColorMatrix type="matrix" values="0 0 0 0 0 0 0 0 0 0 0 0 0 0 0 0 0 0 0.05 0"/>
<feBlend mode="normal" in2="BackgroundImageFix" result="effect1_dropShadow_31_38"/>
<feBlend mode="normal" in="SourceGraphic" in2="effect1_dropShadow_31_38" result="shape"/>
<feColorMatrix in="SourceAlpha" type="matrix" values="0 0 0 0 0 0 0 0 0 0 0 0 0 0 0 0 0 0 127 0" result="hardAlpha"/>
<feOffset dy="1"/>
<feGaussianBlur stdDeviation="0.5"/>
<feComposite in2="hardAlpha" operator="arithmetic" k2="-1" k3="1"/>
<feColorMatrix type="matrix" values="0 0 0 0 0.39908 0 0 0 0 0.429688 0 0 0 0 0.529167 0 0 0 0.15 0"/>
<feBlend mode="normal" in2="shape" result="effect2_innerShadow_31_38"/>
<feColorMatrix in="SourceAlpha" type="matrix" values="0 0 0 0 0 0 0 0 0 0 0 0 0 0 0 0 0 0 127 0" result="hardAlpha"/>
<feOffset dy="1"/>
<feGaussianBlur stdDeviation="0.5"/>
<feComposite in2="hardAlpha" operator="arithmetic" k2="-1" k3="1"/>
<feColorMatrix type="matrix" values="0 0 0 0 0.4 0 0 0 0 0.431373 0 0 0 0 0.529412 0 0 0 0.15 0"/>
<feBlend mode="normal" in2="effect2_innerShadow_31_38" result="effect3_innerShadow_31_38"/>
</filter>
<linearGradient id="paint0_linear_31_38" x1="23" y1="0" x2="23" y2="46" gradientUnits="userSpaceOnUse">
<stop stop-color="#292A34"/>
<stop offset="1" stop-color="#1D1E26" stop-opacity="0"/>
</linearGradient>
<linearGradient id="paint1_linear_31_38" x1="23" y1="0" x2="23" y2="46" gradientUnits="userSpaceOnUse">
<stop stop-color="#1D1E26" stop-opacity="0"/>
<stop offset="1" stop-color="#181920"/>
</linearGradient>
<linearGradient id="paint2_linear_31_38" x1="23" y1="0" x2="23" y2="27" gradientUnits="userSpaceOnUse">
<stop stop-color="#2D2E37"/>
<stop offset="1" stop-color="#1D1E26" stop-opacity="0"/>
</linearGradient>
<radialGradient id="paint3_radial_31_38" cx="0" cy="0" r="1" gradientUnits="userSpaceOnUse" gradientTransform="translate(18.7867 12.243) rotate(90) scale(10.2104)">
<stop stop-color="#4B4F5F"/>
<stop offset="1" stop-color="#30333E" stop-opacity="0"/>
</radialGradient>
<radialGradient id="paint4_radial_31_38" cx="0" cy="0" r="1" gradientUnits="userSpaceOnUse" gradientTransform="translate(19.1067 24.48) rotate(90) scale(9.12 47.2)">
<stop stop-color="#C0C4D6"/>
<stop offset="1" stop-color="#9296A9" stop-opacity="0"/>
</radialGradient>
<radialGradient id="paint5_radial_31_38" cx="0" cy="0" r="1" gradientUnits="userSpaceOnUse" gradientTransform="translate(28.84 14.1688) rotate(90) scale(8.09791)">
<stop stop-color="#4B4F5F"/>
<stop offset="1" stop-color="#30333E" stop-opacity="0"/>
</radialGradient>
<radialGradient id="paint6_radial_31_38" cx="0" cy="0" r="1" gradientUnits="userSpaceOnUse" gradientTransform="translate(32.14 24.8867) rotate(90) scale(7.36666 8.40937)">
<stop stop-color="#4B4F5F"/>
<stop offset="1" stop-color="#30333E" stop-opacity="0"/>
</radialGradient>
</defs>
</svg>
