<svg width="22" height="16" viewBox="0 0 22 16" fill="none" xmlns="http://www.w3.org/2000/svg">
<path d="M18.6512 1.34399C17.217 0.714666 15.6939 0.255998 14.104 0C13.9039 0.330669 13.6815 0.778662 13.5259 1.13067C11.8349 0.895994 10.1561 0.895994 8.48839 1.13067C8.33273 0.778662 8.09925 0.330669 7.91023 0C6.3093 0.255998 4.78616 0.714666 3.36197 1.34399C0.482465 5.41865 -0.295784 9.3973 0.0933395 13.3226C2.0056 14.6559 3.85117 15.4666 5.66449 16C6.1092 15.424 6.50945 14.8053 6.8541 14.1546C6.19815 13.92 5.57555 13.632 4.97519 13.2906C5.13084 13.184 5.28649 13.0667 5.43102 12.9493C9.05542 14.5387 12.9811 14.5387 16.561 12.9493C16.7167 13.0667 16.8612 13.184 17.0169 13.2906C16.4165 13.632 15.7939 13.92 15.1379 14.1546C15.4826 14.8053 15.8829 15.424 16.3275 16C18.1398 15.4666 19.9964 14.6559 21.8987 13.3226C22.3767 8.77867 21.1416 4.83202 18.6512 1.34399ZM7.35439 10.9013C6.26483 10.9013 5.37541 9.95199 5.37541 8.78934C5.37541 7.62668 6.2426 6.67731 7.35439 6.67731C8.45503 6.67731 9.35555 7.62668 9.33331 8.78934C9.33331 9.95199 8.45503 10.9013 7.35439 10.9013ZM14.6599 10.9013C13.5703 10.9013 12.6798 9.95199 12.6798 8.78934C12.6798 7.62668 13.5481 6.67731 14.6599 6.67731C15.7606 6.67731 16.6611 7.62668 16.6389 8.78934C16.6389 9.95199 15.7717 10.9013 14.6599 10.9013Z" fill="#585B68"/>
</svg>
