<svg width="46" height="46" viewBox="0 0 46 46" fill="none" xmlns="http://www.w3.org/2000/svg">
<circle cx="23" cy="23" r="22.5" fill="#1D1E26"/>
<circle cx="23" cy="23" r="22.5" fill="url(#paint0_linear_31_30)"/>
<circle cx="23" cy="23" r="22.5" fill="url(#paint1_linear_31_30)"/>
<circle cx="23" cy="23" r="22.5" stroke="url(#paint2_linear_31_30)"/>
<g clip-path="url(#clip0_31_30)">
<g filter="url(#filter0_dii_31_30)">
<path d="M26.4933 18.52H19.52C18.9734 18.52 18.52 18.96 18.52 19.5067V26.4934C18.52 27.04 18.9734 27.48 19.52 27.48H26.4933C27.04 27.48 27.4933 27.04 27.4933 26.4934V19.5067C27.4933 18.96 27.04 18.52 26.4933 18.52Z" fill="#9296A9"/>
<path d="M26.4933 18.52H19.52C18.9734 18.52 18.52 18.96 18.52 19.5067V26.4934C18.52 27.04 18.9734 27.48 19.52 27.48H26.4933C27.04 27.48 27.4933 27.04 27.4933 26.4934V19.5067C27.4933 18.96 27.04 18.52 26.4933 18.52Z" fill="url(#paint3_radial_31_30)"/>
</g>
<g filter="url(#filter1_dii_31_30)">
<path d="M35.3467 24C35.8933 24 36.3467 23.5467 36.3467 23C36.3467 22.4534 35.8933 22 35.3467 22H33.6V17.1467H35.3467C35.8933 17.1467 36.3467 16.7067 36.3467 16.1467C36.3467 15.6 35.8933 15.1467 35.3467 15.1467H33.2533C32.7867 14.08 31.9333 13.2134 30.8533 12.76V10.6667C30.8533 10.12 30.4133 9.66669 29.8533 9.66669C29.3067 9.66669 28.8533 10.12 28.8533 10.6667V12.4134H24.0133V10.6667C24.0133 10.12 23.56 9.66669 23.0133 9.66669C22.4533 9.66669 22.0133 10.12 22.0133 10.6667V12.4134H17.16V10.6667C17.16 10.12 16.7067 9.66669 16.16 9.66669C15.6 9.66669 15.16 10.12 15.16 10.6667V12.76C14.08 13.2134 13.2267 14.08 12.76 15.1467H10.68C10.12 15.1467 9.68001 15.6 9.68001 16.1467C9.68001 16.7067 10.12 17.1467 10.68 17.1467H12.4133V22H10.68C10.12 22 9.68001 22.4534 9.68001 23C9.68001 23.5467 10.12 24 10.68 24H12.4133V28.8534H10.68C10.12 28.8534 9.68001 29.2934 9.68001 29.8534C9.68001 30.4 10.12 30.8534 10.68 30.8534H12.76C13.2267 31.92 14.08 32.7867 15.16 33.24V35.3334C15.16 35.88 15.6 36.3334 16.16 36.3334C16.7067 36.3334 17.16 35.88 17.16 35.3334V33.5867H22.0133V35.3334C22.0133 35.88 22.4533 36.3334 23.0133 36.3334C23.56 36.3334 24.0133 35.88 24.0133 35.3334V33.5867H28.8533V35.3334C28.8533 35.88 29.3067 36.3334 29.8533 36.3334C30.4133 36.3334 30.8533 35.88 30.8533 35.3334V33.24C31.9333 32.7867 32.7867 31.92 33.2533 30.8534H35.3467C35.8933 30.8534 36.3467 30.4 36.3467 29.8534C36.3467 29.2934 35.8933 28.8534 35.3467 28.8534H33.6V24H35.3467ZM29.4933 26.4934C29.4933 28.1467 28.1467 29.48 26.4933 29.48H19.52C17.8667 29.48 16.52 28.1467 16.52 26.4934V19.5067C16.52 17.8534 17.8667 16.52 19.52 16.52H26.4933C28.1467 16.52 29.4933 17.8534 29.4933 19.5067V26.4934Z" fill="#30333E"/>
<path d="M35.3467 24C35.8933 24 36.3467 23.5467 36.3467 23C36.3467 22.4534 35.8933 22 35.3467 22H33.6V17.1467H35.3467C35.8933 17.1467 36.3467 16.7067 36.3467 16.1467C36.3467 15.6 35.8933 15.1467 35.3467 15.1467H33.2533C32.7867 14.08 31.9333 13.2134 30.8533 12.76V10.6667C30.8533 10.12 30.4133 9.66669 29.8533 9.66669C29.3067 9.66669 28.8533 10.12 28.8533 10.6667V12.4134H24.0133V10.6667C24.0133 10.12 23.56 9.66669 23.0133 9.66669C22.4533 9.66669 22.0133 10.12 22.0133 10.6667V12.4134H17.16V10.6667C17.16 10.12 16.7067 9.66669 16.16 9.66669C15.6 9.66669 15.16 10.12 15.16 10.6667V12.76C14.08 13.2134 13.2267 14.08 12.76 15.1467H10.68C10.12 15.1467 9.68001 15.6 9.68001 16.1467C9.68001 16.7067 10.12 17.1467 10.68 17.1467H12.4133V22H10.68C10.12 22 9.68001 22.4534 9.68001 23C9.68001 23.5467 10.12 24 10.68 24H12.4133V28.8534H10.68C10.12 28.8534 9.68001 29.2934 9.68001 29.8534C9.68001 30.4 10.12 30.8534 10.68 30.8534H12.76C13.2267 31.92 14.08 32.7867 15.16 33.24V35.3334C15.16 35.88 15.6 36.3334 16.16 36.3334C16.7067 36.3334 17.16 35.88 17.16 35.3334V33.5867H22.0133V35.3334C22.0133 35.88 22.4533 36.3334 23.0133 36.3334C23.56 36.3334 24.0133 35.88 24.0133 35.3334V33.5867H28.8533V35.3334C28.8533 35.88 29.3067 36.3334 29.8533 36.3334C30.4133 36.3334 30.8533 35.88 30.8533 35.3334V33.24C31.9333 32.7867 32.7867 31.92 33.2533 30.8534H35.3467C35.8933 30.8534 36.3467 30.4 36.3467 29.8534C36.3467 29.2934 35.8933 28.8534 35.3467 28.8534H33.6V24H35.3467ZM29.4933 26.4934C29.4933 28.1467 28.1467 29.48 26.4933 29.48H19.52C17.8667 29.48 16.52 28.1467 16.52 26.4934V19.5067C16.52 17.8534 17.8667 16.52 19.52 16.52H26.4933C28.1467 16.52 29.4933 17.8534 29.4933 19.5067V26.4934Z" fill="url(#paint4_radial_31_30)"/>
</g>
</g>
<defs>
<filter id="filter0_dii_31_30" x="17.52" y="18.52" width="10.9733" height="11.96" filterUnits="userSpaceOnUse" color-interpolation-filters="sRGB">
<feFlood flood-opacity="0" result="BackgroundImageFix"/>
<feColorMatrix in="SourceAlpha" type="matrix" values="0 0 0 0 0 0 0 0 0 0 0 0 0 0 0 0 0 0 127 0" result="hardAlpha"/>
<feOffset dy="2"/>
<feGaussianBlur stdDeviation="0.5"/>
<feComposite in2="hardAlpha" operator="out"/>
<feColorMatrix type="matrix" values="0 0 0 0 0 0 0 0 0 0 0 0 0 0 0 0 0 0 0.05 0"/>
<feBlend mode="normal" in2="BackgroundImageFix" result="effect1_dropShadow_31_30"/>
<feBlend mode="normal" in="SourceGraphic" in2="effect1_dropShadow_31_30" result="shape"/>
<feColorMatrix in="SourceAlpha" type="matrix" values="0 0 0 0 0 0 0 0 0 0 0 0 0 0 0 0 0 0 127 0" result="hardAlpha"/>
<feOffset dy="1"/>
<feGaussianBlur stdDeviation="0.5"/>
<feComposite in2="hardAlpha" operator="arithmetic" k2="-1" k3="1"/>
<feColorMatrix type="matrix" values="0 0 0 0 1 0 0 0 0 1 0 0 0 0 1 0 0 0 0.15 0"/>
<feBlend mode="normal" in2="shape" result="effect2_innerShadow_31_30"/>
<feColorMatrix in="SourceAlpha" type="matrix" values="0 0 0 0 0 0 0 0 0 0 0 0 0 0 0 0 0 0 127 0" result="hardAlpha"/>
<feOffset dy="1"/>
<feGaussianBlur stdDeviation="0.5"/>
<feComposite in2="hardAlpha" operator="arithmetic" k2="-1" k3="1"/>
<feColorMatrix type="matrix" values="0 0 0 0 1 0 0 0 0 1 0 0 0 0 1 0 0 0 0.15 0"/>
<feBlend mode="normal" in2="effect2_innerShadow_31_30" result="effect3_innerShadow_31_30"/>
</filter>
<filter id="filter1_dii_31_30" x="8.68001" y="9.66669" width="28.6667" height="29.6667" filterUnits="userSpaceOnUse" color-interpolation-filters="sRGB">
<feFlood flood-opacity="0" result="BackgroundImageFix"/>
<feColorMatrix in="SourceAlpha" type="matrix" values="0 0 0 0 0 0 0 0 0 0 0 0 0 0 0 0 0 0 127 0" result="hardAlpha"/>
<feOffset dy="2"/>
<feGaussianBlur stdDeviation="0.5"/>
<feComposite in2="hardAlpha" operator="out"/>
<feColorMatrix type="matrix" values="0 0 0 0 0 0 0 0 0 0 0 0 0 0 0 0 0 0 0.05 0"/>
<feBlend mode="normal" in2="BackgroundImageFix" result="effect1_dropShadow_31_30"/>
<feBlend mode="normal" in="SourceGraphic" in2="effect1_dropShadow_31_30" result="shape"/>
<feColorMatrix in="SourceAlpha" type="matrix" values="0 0 0 0 0 0 0 0 0 0 0 0 0 0 0 0 0 0 127 0" result="hardAlpha"/>
<feOffset dy="1"/>
<feGaussianBlur stdDeviation="0.5"/>
<feComposite in2="hardAlpha" operator="arithmetic" k2="-1" k3="1"/>
<feColorMatrix type="matrix" values="0 0 0 0 0.39908 0 0 0 0 0.429688 0 0 0 0 0.529167 0 0 0 0.15 0"/>
<feBlend mode="normal" in2="shape" result="effect2_innerShadow_31_30"/>
<feColorMatrix in="SourceAlpha" type="matrix" values="0 0 0 0 0 0 0 0 0 0 0 0 0 0 0 0 0 0 127 0" result="hardAlpha"/>
<feOffset dy="1"/>
<feGaussianBlur stdDeviation="0.5"/>
<feComposite in2="hardAlpha" operator="arithmetic" k2="-1" k3="1"/>
<feColorMatrix type="matrix" values="0 0 0 0 0.4 0 0 0 0 0.431373 0 0 0 0 0.529412 0 0 0 0.15 0"/>
<feBlend mode="normal" in2="effect2_innerShadow_31_30" result="effect3_innerShadow_31_30"/>
</filter>
<linearGradient id="paint0_linear_31_30" x1="23" y1="0" x2="23" y2="46" gradientUnits="userSpaceOnUse">
<stop stop-color="#292A34"/>
<stop offset="1" stop-color="#1D1E26" stop-opacity="0"/>
</linearGradient>
<linearGradient id="paint1_linear_31_30" x1="23" y1="0" x2="23" y2="46" gradientUnits="userSpaceOnUse">
<stop stop-color="#1D1E26" stop-opacity="0"/>
<stop offset="1" stop-color="#181920"/>
</linearGradient>
<linearGradient id="paint2_linear_31_30" x1="23" y1="0" x2="23" y2="27" gradientUnits="userSpaceOnUse">
<stop stop-color="#2D2E37"/>
<stop offset="1" stop-color="#1D1E26" stop-opacity="0"/>
</linearGradient>
<radialGradient id="paint3_radial_31_30" cx="0" cy="0" r="1" gradientUnits="userSpaceOnUse" gradientTransform="translate(23.0067 18.52) rotate(90) scale(8.96 22.4333)">
<stop stop-color="#C0C4D6"/>
<stop offset="1" stop-color="#9296A9" stop-opacity="0"/>
</radialGradient>
<radialGradient id="paint4_radial_31_30" cx="0" cy="0" r="1" gradientUnits="userSpaceOnUse" gradientTransform="translate(23.0133 9.25004) rotate(90) scale(27.0833)">
<stop stop-color="#4B4F5F"/>
<stop offset="1" stop-color="#30333E" stop-opacity="0"/>
</radialGradient>
<clipPath id="clip0_31_30">
<rect width="32" height="32" fill="white" transform="translate(7 7)"/>
</clipPath>
</defs>
</svg>
