<svg width="20" height="20" viewBox="0 0 20 20" fill="none" xmlns="http://www.w3.org/2000/svg">
<path d="M8.06563 10.381V16.7844H7.25194V13.9773L6.17831 13.0753H7.25194V10.381H7.65125L7.67761 14.1562L7.70398 10.381H7.88857L7.91494 11.7612L7.94131 10.381H8.06563ZM18.1351 10.381L17.9203 11.0614H17.4457L17.4306 11.6329L17.4155 11.0614H17.1067V16.7844H16.293V11.0614H15.5433L15.5358 11.3179L15.5282 11.0614H15.2495L15.4642 10.381H15.5245L15.5169 9.61893H15.4416L15.434 10.2372L15.4265 9.61893H15.1101L15.0837 6.67577L15.0574 9.61893H14.918L14.8991 12.3444V16.7844H14.1683L13.4978 14.6577L13.4827 15.9602L13.4677 14.5644L12.7293 12.22V16.7805H12.0437V10.381H12.5749L12.5711 9.66945C12.5221 9.66174 12.4731 9.65395 12.4279 9.64617L12.4166 8.87637C12.5221 8.95414 12.6539 8.99688 12.8197 8.99688C13.3132 8.99688 13.5242 8.62751 13.5242 8.14542V4.68904C13.5242 4.20694 13.3132 3.83758 12.8197 3.83758C12.3337 3.83758 12.1228 4.20694 12.1228 4.68904V8.14542C12.1228 8.44481 12.2057 8.70139 12.3865 8.85302L12.3751 9.6345C11.6444 9.45562 11.3166 8.81411 11.3166 8.02492V4.81345C11.3166 3.86868 11.7724 3.1533 12.8159 3.1533C13.8783 3.1533 14.3265 3.87257 14.3265 4.81345V8.02492C14.3265 8.95796 13.8783 9.68502 12.8159 9.68502C12.7406 9.68502 12.6728 9.68113 12.605 9.67335L12.6012 10.381H12.8499L14.2022 14.6577V10.381H14.368L14.3943 13.3241L14.4207 10.381H14.8727L14.869 9.61893V3.21551H16.3344C17.4231 3.21551 17.8073 3.93478 17.8073 4.87566V7.95493C17.8073 8.88798 17.4231 9.61504 16.3344 9.61504H15.645L15.6337 10.0039L15.6224 9.61504H15.5508L15.5433 10.3771H18.1351V10.381ZM15.6752 8.93857H15.969L15.9878 7.19675L16.0067 8.93857H16.2327C16.8015 8.93857 17.0011 8.58088 17.0011 8.09879V4.72791C17.0011 4.43243 16.9221 4.18361 16.7261 4.03587L16.7074 5.7971L16.6885 4.01254C16.5755 3.93866 16.4248 3.89979 16.2327 3.89979H15.6752V8.93857ZM6.3742 9.61893L6.35913 8.93857H6.27626L6.25742 5.36942L6.23858 8.93857H6.00879V3.21551H5.20263V9.61893H5.82044L5.83174 10.0078L5.84304 9.61893H5.94852L5.95229 10.381H5.18757V16.7844H5.99372V9.61893H6.3742ZM7.03344 12.3522L7.05228 9.61893H7.28207L7.49679 8.93857H7.05228L7.03344 7.19675L7.01461 8.93857H6.56632L6.55125 8.36315L6.53618 8.93857H6.4194L6.40433 9.61893H7.01084L7.03344 12.3522ZM8.76255 9.61893H8.78511C8.09576 9.42066 7.78309 8.79082 7.78309 8.02102V4.80956C7.78309 3.8648 8.23889 3.14941 9.28238 3.14941C10.3447 3.14941 10.793 3.86868 10.793 4.80956V7.77216L10.7817 10.381H11.5012V15.272C11.5012 16.2168 11.1094 16.8505 10.0924 16.8505C9.04132 16.8505 8.6194 16.2168 8.6194 15.272V10.381H8.70606L8.73239 13.3241L8.76255 9.61893ZM9.28615 8.99299C9.77965 8.99299 9.99061 8.62362 9.99061 8.14153V4.68515C9.99061 4.42466 9.92657 4.19527 9.79096 4.03975L9.77211 7.03343L9.75325 4.00087C9.64027 3.8959 9.48957 3.83369 9.28615 3.83369C8.80019 3.83369 8.58923 4.20304 8.58923 4.68515V8.14153C8.58923 8.62751 8.80019 8.99299 9.28615 8.99299ZM10.7591 8.46031C10.744 8.55364 10.7214 8.64308 10.6913 8.72863L10.6724 11.6251L10.6536 8.83357C10.6235 8.91133 10.5858 8.9852 10.5406 9.05519L10.518 6.39584L10.4916 9.13295C10.469 9.16408 10.4464 9.19515 10.4201 9.22239L10.3974 8.67804L10.3748 9.26902C10.3485 9.29626 10.3221 9.31955 10.2958 9.3429L10.2807 11.6212L10.2656 9.37014C10.1639 9.45179 10.0471 9.52177 9.91526 9.5723L9.90395 10.0039L9.89264 9.58397C9.85877 9.59565 9.82483 9.60726 9.79096 9.61504L9.77211 12.3483L9.75325 9.62671C9.61387 9.66174 9.45947 9.68113 9.28992 9.68113C9.1129 9.68113 8.95089 9.65785 8.80773 9.61893L8.80396 10.3771H9.43685V15.3459C9.43685 15.8163 9.6101 16.1584 10.1036 16.1584C10.5896 16.1584 10.7629 15.8202 10.7629 15.3459L10.7591 8.46031ZM4.71291 7.3406V8.30484C4.71291 9.14073 4.33243 9.60336 3.40573 9.61504L3.3982 10.8825L3.39066 9.61504C3.37936 9.61504 2.27184 9.61504 2.27184 9.61504L2.26053 10.0039L2.22286 8.88798L2.19649 9.61504H2.10608L2.07971 3.84924L2.05334 9.61893H1.86499V3.21551H3.22868C4.19682 3.21551 4.54716 3.67818 4.54716 4.52963V5.28389C4.54716 5.81265 4.35504 6.16257 3.91429 6.29476C4.44545 6.39973 4.71291 6.75742 4.71291 7.3406ZM2.67115 6.00316H3.16464C3.58655 6.00316 3.78621 5.78544 3.78621 5.36942V4.51797C3.78621 4.10196 3.58655 3.8959 3.1458 3.8959H2.67115V6.00316ZM3.39066 8.93079L3.37936 6.64856C3.34169 6.64467 3.30025 6.64078 3.25881 6.64078H2.67115V8.93468H3.26635C3.30779 8.93857 3.34923 8.93468 3.39066 8.93079ZM3.91429 7.25894C3.91429 6.90514 3.75983 6.6991 3.41703 6.65634L3.40573 8.93079C3.741 8.88798 3.91429 8.67414 3.91429 8.31645V7.25894Z" fill="#9296A9"/>
</svg>
