<svg width="42" height="19" viewBox="0 0 42 19" fill="none" xmlns="http://www.w3.org/2000/svg">
<path d="M3 8.29476V5H6.23528V5.74398H4.31808V6.16911H5.07697V7.01937H4.31808V7.4445H6.23528V8.29476H3Z" fill="#9296A9"/>
<path d="M19.8852 8.29476V5H23.1204V5.74398H21.2033V6.16911H21.9621V7.01937H21.2033V7.4445H23.1204V8.29476H19.8852Z" fill="#9296A9"/>
<path d="M6.43288 8.29476V7.4445H8.27019V6.96623H6.43288V5.79712L7.032 5H9.58827V5.74398H7.67107V6.16911H9.58827V7.81649L9.22879 8.29476H6.43288Z" fill="#9296A9"/>
<path d="M12.9414 5H9.78605V8.29476H12.9414V7.4445H11.0242V5.74398H12.9414V5Z" fill="#9296A9"/>
<path fill-rule="evenodd" clip-rule="evenodd" d="M13.139 8.29476H14.4171V7.86963H15.0562V8.29476H16.3343V5H13.4984L13.139 5.47827V8.29476ZM14.3771 5.69074H15.0969V7.07241H14.3771V5.69074Z" fill="#9296A9"/>
<path fill-rule="evenodd" clip-rule="evenodd" d="M16.532 5H19.6874V7.28508H17.7702V8.29476H16.532V5ZM17.7304 5.63762H18.4501V6.43474H17.7304V5.63762Z" fill="#9296A9"/>
<path d="M24.7481 8.29476V5H27.9834V5.74398H26.0662V6.16911H26.8251V7.01937H26.0662V8.29476H24.7481Z" fill="#9296A9"/>
<path fill-rule="evenodd" clip-rule="evenodd" d="M28.1814 5H31.3368V7.28508H30.5779L31.3368 8.29476H30.1784L29.4196 7.28508V8.29476H28.1814V5ZM29.3795 5.63762H30.0993V6.43474H29.3795V5.63762Z" fill="#9296A9"/>
<path fill-rule="evenodd" clip-rule="evenodd" d="M31.5343 8.29476H34.3302L34.6897 7.81649V5H32.1334L31.5343 5.79712V8.29476ZM32.7325 5.63762H33.4923V7.49757H32.7325V5.63762Z" fill="#9296A9"/>
<path d="M36.0857 5H34.8875V8.29476H36.1656V7.28508L36.9245 8.29476H37.963L38.7219 7.28508V8.29476H40V5H38.8017L37.4437 6.80681L36.0857 5Z" fill="#9296A9"/>
<path fill-rule="evenodd" clip-rule="evenodd" d="M27.5406 15H32.3961L33.0204 14.1663V9.25659H28.5811L27.5406 10.6461V15ZM29.5084 10.3682H30.8279V13.6105H29.5084V10.3682Z" fill="#9296A9"/>
<path d="M33.3946 12.662V9.25659H35.5487V12.357L36.1344 13.1448L36.7202 12.357V9.25659H38.8743V12.662L37.1359 15H35.133L33.3946 12.662Z" fill="#9296A9"/>
<path fill-rule="evenodd" clip-rule="evenodd" d="M10.0171 15H12.2241V14.2589H13.3276V15H15.5346V9.25659H10.6378L10.0171 10.0903V15ZM12.1741 10.4608H13.417V12.8693H12.1741V10.4608Z" fill="#9296A9"/>
<path d="M9.64313 10.4764V9.25659H4.12558V10.4764H5.7884V15H7.9803V10.4764H9.64313Z" fill="#9296A9"/>
<path fill-rule="evenodd" clip-rule="evenodd" d="M15.9086 9.25659H21.3506V13.2399H20.0418L21.3506 15H19.3529L18.0441 13.2399V15H15.9086V9.25659ZM18.013 10.3682H19.2544V11.7577H18.013V10.3682Z" fill="#9296A9"/>
<path d="M23.8602 15V13.2399L25.169 15H27.1667L24.8992 11.9506L26.9023 9.25659H24.6347L23.8789 10.2731V9.25659H21.7247V15H23.8602Z" fill="#9296A9"/>
</svg>
