<svg width="18" height="18" viewBox="0 0 18 18" fill="none" xmlns="http://www.w3.org/2000/svg">
<path d="M3.98842 1.63575C4.05734 2.01026 4.11641 2.05953 4.31332 1.86243C4.461 1.71459 4.461 1.69488 4.28378 1.63575C4.18533 1.59633 4.06718 1.51749 4.01796 1.45835C3.97858 1.39922 3.96873 1.47807 3.98842 1.63575Z" fill="white"/>
<path d="M11.4232 1.84251C11.4232 1.89179 11.4724 2.01005 11.5216 2.0889C11.5708 2.16774 11.6201 2.18745 11.6201 2.13817C11.6201 2.07904 11.5708 1.97063 11.5216 1.89179C11.4724 1.81295 11.4232 1.78338 11.4232 1.84251Z" fill="white"/>
<path d="M6.24042 2.1182C6.11243 2.16748 6.01398 2.27589 6.01398 2.35473C6.01398 2.43358 6.07305 2.473 6.14197 2.44343C6.20104 2.41386 6.33887 2.35473 6.43733 2.32517C6.61454 2.25618 6.66377 2.12806 6.53578 2.05907C6.48655 2.0295 6.35856 2.05907 6.24042 2.1182Z" fill="white"/>
<path d="M4.96191 2.1977C4.80464 2.25673 4.73584 2.36496 4.73584 2.53223C4.73584 2.80772 4.8931 2.84707 5.17814 2.64045C5.32558 2.53223 5.34524 2.46335 5.27643 2.30593C5.1978 2.1485 5.129 2.12883 4.96191 2.1977Z" fill="white"/>
<path d="M3.59499 2.30602C3.62443 2.4534 3.85018 2.532 3.85018 2.38462C3.85018 2.32567 3.81092 2.2962 3.76185 2.32567C3.71277 2.36497 3.64406 2.3355 3.62443 2.28637C3.59499 2.22742 3.58517 2.23725 3.59499 2.30602Z" fill="white"/>
<path d="M11.4726 2.38454C11.4431 2.43366 11.4628 2.48279 11.5118 2.48279C11.5707 2.48279 11.6198 2.43366 11.6198 2.38454C11.6198 2.32559 11.6002 2.28629 11.5805 2.28629C11.5511 2.28629 11.502 2.32559 11.4726 2.38454Z" fill="white"/>
<path d="M2.43445 2.65041C2.37556 2.78796 2.38537 2.79779 2.48353 2.70936C2.55223 2.64058 2.58168 2.56198 2.55223 2.53251C2.52279 2.50303 2.4639 2.55216 2.43445 2.65041Z" fill="white"/>
<path d="M3.01475 2.58144C3.0442 2.63056 3.09327 2.67969 3.12272 2.67969C3.14235 2.67969 3.16198 2.63056 3.16198 2.58144C3.16198 2.52249 3.1129 2.48319 3.05401 2.48319C3.00494 2.48319 2.98531 2.52249 3.01475 2.58144Z" fill="white"/>
<path d="M7.48937 2.57146C7.48937 2.70929 6.03384 2.82742 5.88632 2.69944C5.80764 2.63053 5.70929 2.64037 5.58144 2.73882C5.47326 2.81758 5.27657 2.87665 5.14872 2.87665C5.01103 2.87665 4.82417 2.96525 4.73566 3.07354C4.61765 3.21136 4.46029 3.27043 4.2636 3.25074C4.09641 3.2409 3.97839 3.20152 4.0079 3.16214C4.02757 3.12276 3.96856 3.03416 3.87021 2.96525C3.7817 2.89633 3.73253 2.8668 3.77186 2.91602C3.8112 2.96525 3.67352 3.12276 3.47682 3.27043C3.16211 3.49686 3.10311 3.59531 3.09327 3.93003C3.0736 4.30413 3.09327 4.33366 3.38831 4.39273L3.70302 4.46164L3.45715 4.58962C3.24079 4.69791 3.17195 4.68807 2.94575 4.53055C2.60154 4.29428 2.5917 4.29428 2.50319 4.7176C2.42451 5.16061 2.45402 5.45595 2.5917 5.54456C2.65071 5.58394 2.67038 5.68238 2.64088 5.78083C2.60154 5.86943 2.5327 5.91866 2.48352 5.88912C2.24749 5.74145 2.20815 7.34614 2.43435 8.29123C2.67038 9.29539 3.11294 9.80731 4.0669 10.1322C4.5488 10.2995 6.05351 10.4374 8.22697 10.5161C9.04324 10.5457 9.79068 10.5752 9.89886 10.585C10.0464 10.6047 10.0857 10.5555 10.0661 10.4078C10.0464 10.2995 10.0365 10.1026 10.0365 9.97467C10.0464 9.84669 9.99721 9.67933 9.9382 9.61042C9.84969 9.50212 9.88903 9.48243 10.1349 9.50212C10.3808 9.52181 10.4398 9.56119 10.4398 9.7384C10.4398 9.89591 10.4988 9.96482 10.6266 9.96482C10.784 9.96482 10.9217 10.1814 10.9708 10.5063C10.9905 10.6933 11.2954 10.6638 11.3544 10.4571C11.3839 10.3488 11.4822 10.2602 11.6003 10.2602C11.7084 10.2602 11.8265 10.1913 11.856 10.1026C11.8953 10.0042 11.974 9.96482 12.0822 10.0042C12.1707 10.0436 12.2788 10.014 12.3182 9.95498C12.4559 9.72855 12.6821 10.1125 12.7509 10.6835C12.8001 11.0871 12.7804 11.3628 12.6526 11.727C12.5641 12.0027 12.4559 12.2291 12.4165 12.2291C12.3772 12.2291 12.2887 12.3374 12.2297 12.4752C12.1117 12.7312 11.8265 12.8099 11.8068 12.5934C11.8068 12.5343 11.7379 12.6229 11.6593 12.8099C11.5806 12.9871 11.4429 13.2037 11.3642 13.2825C11.2462 13.4105 11.2265 13.3711 11.2462 12.9773C11.256 12.6327 11.2069 12.4654 11.0495 12.298C10.8233 12.0617 10.7545 11.7369 10.9315 11.7369C11.079 11.7369 11.0495 11.5794 10.8725 11.4021C10.7053 11.2249 10.4889 11.1856 10.5873 11.3431C10.6168 11.4021 10.5971 11.4415 10.5381 11.4415C10.4594 11.4415 10.4594 11.5006 10.5381 11.6384C10.6168 11.7861 10.6168 11.8353 10.5283 11.8353C10.4693 11.8353 10.4398 11.9042 10.4791 11.983C10.5086 12.0617 10.4791 12.1307 10.4201 12.1307C10.3611 12.1307 10.3709 12.1897 10.4496 12.298C10.5775 12.4457 10.4693 12.4555 8.91539 12.3866C8.00077 12.3472 6.94846 12.3177 6.58458 12.3276C5.97483 12.3374 5.91582 12.3177 5.91582 12.1405C5.91582 12.0224 5.84698 11.9338 5.7683 11.9338C5.68962 11.9338 5.62078 11.855 5.62078 11.7566C5.62078 11.668 5.56177 11.5203 5.49293 11.4415C5.35524 11.2742 4.83401 11.1856 4.83401 11.3234C4.83401 11.3726 4.47013 11.4218 4.02757 11.4317C3.58501 11.4415 3.19162 11.4908 3.16211 11.54C3.13261 11.5892 2.95559 11.6384 2.77856 11.6581C2.48352 11.6778 2.46385 11.7073 2.51303 11.9535C2.54253 12.1011 2.52286 12.2488 2.47369 12.2783C2.41468 12.3079 2.37534 12.2586 2.36551 12.1602C2.35567 12.0617 2.31633 12.1307 2.27699 12.3079C2.13931 12.9182 2.54253 14.3654 2.86707 14.4048C2.92608 14.4146 3.02443 14.4245 3.09327 14.4343C3.15228 14.4442 3.20145 14.5426 3.18178 14.6706C3.15228 14.8379 3.20145 14.8872 3.36864 14.8872C3.48666 14.8872 3.5555 14.9167 3.526 14.9462C3.44732 15.025 3.85054 15.7732 3.96856 15.7732C4.0669 15.7732 4.07674 15.4089 3.97839 15.3499C3.92922 15.3302 3.96856 15.3302 4.04723 15.3499C4.49963 15.468 5.72896 15.5665 6.81078 15.5763C7.83358 15.5763 8.07945 15.5468 8.18763 15.4188C8.30564 15.281 8.32531 15.281 8.4335 15.4188C8.53184 15.5566 8.84655 15.5861 10.5775 15.6058C12.151 15.6255 12.6329 15.6058 12.7214 15.5074C12.7804 15.4385 12.8788 15.3794 12.9574 15.3794C13.0263 15.3794 13.341 15.281 13.6557 15.1628C15.0522 14.6509 15.603 13.3711 15.5341 10.8312C15.5145 10.1125 15.4653 9.71871 15.4161 9.77778C15.3571 9.827 15.2686 9.76793 15.1899 9.59073C15.1211 9.44306 14.9932 9.22647 14.9145 9.11818C14.7769 8.92129 14.7769 8.89175 14.9145 8.74408C15.0522 8.60626 15.0621 8.58657 14.9244 8.58657C14.826 8.58657 14.7965 8.5275 14.8359 8.41921C14.8752 8.31092 14.8654 8.28138 14.7867 8.33061C14.7178 8.36998 14.6982 8.49796 14.7277 8.65548L14.7965 8.92129L14.4523 8.7047C13.8131 8.31092 13.282 8.18293 12.0133 8.14356C11.3347 8.11402 10.6365 8.07464 10.4693 8.03526C10.2136 7.98604 10.1349 8.00573 10.0857 8.14356C10.0365 8.25185 9.99721 8.27154 9.94803 8.19278C9.84969 8.04511 9.35795 8.242 9.35795 8.4389C9.35795 8.51765 9.40713 8.58657 9.4563 8.58657C9.51531 8.58657 9.55465 8.66532 9.54481 8.75393C9.54481 8.86222 9.51531 8.88191 9.4858 8.80315C9.46614 8.74408 9.37762 8.68501 9.29895 8.68501C9.22027 8.68501 9.13176 8.6161 9.10225 8.53734C9.06291 8.45859 8.98424 8.38967 8.92523 8.38967C8.85639 8.38967 8.69903 8.28138 8.57118 8.14356C8.36465 7.91713 8.26631 7.89744 7.4992 7.89744C6.52557 7.88759 5.95516 7.7793 5.72896 7.55287C5.62078 7.44458 5.57161 7.21815 5.57161 6.83421C5.57161 6.29275 5.58144 6.26322 5.91582 6.08602C6.20103 5.9285 6.43706 5.89897 7.36152 5.91866L8.463 5.93834L8.4925 5.66269C8.51217 5.44611 8.58102 5.3772 8.79738 5.35751C9.14159 5.31813 9.14159 5.50518 8.80721 5.643C8.65969 5.69223 8.57118 5.77098 8.61052 5.81036C8.64986 5.84974 9.26944 5.89897 9.98737 5.9285C11.0003 5.96788 11.3446 6.0171 11.5511 6.15493C11.6986 6.25337 11.8166 6.29275 11.8166 6.26322C11.8166 6.22384 11.8953 6.26322 11.9936 6.35182C12.092 6.45027 12.21 6.48965 12.2395 6.45027C12.2788 6.42073 12.3084 6.44042 12.3084 6.50934C12.3084 6.68654 12.5247 6.86375 12.7607 6.88344C12.9378 6.90312 12.9673 6.86375 12.9181 6.69639C12.8886 6.55856 12.9083 6.50934 12.9771 6.55856C13.046 6.59794 13.0951 6.68654 13.0951 6.7653C13.0951 6.83421 13.1935 6.92281 13.3213 6.9425C13.518 6.99173 13.518 6.99173 13.2918 6.99173C12.4854 6.98188 12.3772 7.01142 12.505 7.15909C12.6034 7.26738 12.8591 7.30676 13.5967 7.30676C14.1376 7.30676 14.59 7.34614 14.6195 7.4052C14.6588 7.46427 14.7375 7.47412 14.7965 7.43474C14.8654 7.39536 14.9932 7.37567 15.0817 7.38551C15.2194 7.41505 15.2391 7.34614 15.2096 6.99173C15.1899 6.75545 15.1702 6.13524 15.1604 5.60363C15.1506 5.08186 15.1112 4.64869 15.0719 4.64869C15.0326 4.64869 14.944 4.49117 14.8752 4.30413C14.7178 3.85127 14.0786 3.27043 13.5672 3.10307C13.3312 3.02432 13.0755 2.93571 12.9968 2.91602C12.7903 2.83727 12.151 2.80773 9.81035 2.76835C8.28598 2.73882 7.74507 2.69944 7.70573 2.60099C7.66639 2.46317 7.48937 2.44348 7.48937 2.57146ZM5.81747 4.50102C5.81747 4.57978 5.7978 4.64869 5.77814 4.64869C5.75847 4.64869 5.71913 4.57978 5.67979 4.50102C5.65028 4.42226 5.66995 4.35335 5.71913 4.35335C5.77814 4.35335 5.81747 4.42226 5.81747 4.50102ZM4.31277 4.60931C4.28327 4.63885 4.19475 4.64869 4.12591 4.61916C4.04723 4.58962 4.07674 4.56009 4.18492 4.56009C4.2931 4.55024 4.35211 4.57978 4.31277 4.60931ZM5.07987 5.42642C5.05037 5.48549 4.97169 5.53471 4.91268 5.53471C4.85368 5.53471 4.85368 5.47564 4.93235 5.38704C5.07004 5.21968 5.18806 5.25906 5.07987 5.42642ZM7.48937 5.33782C7.48937 5.38704 7.44019 5.43627 7.38119 5.43627C7.33201 5.43627 7.31234 5.38704 7.34185 5.33782C7.37135 5.27875 7.42053 5.23937 7.45003 5.23937C7.4697 5.23937 7.48937 5.27875 7.48937 5.33782ZM5.49293 6.04664C5.46343 6.12539 5.43392 6.09586 5.43392 5.98757C5.42409 5.87928 5.45359 5.82021 5.4831 5.85959C5.5126 5.88912 5.52243 5.97772 5.49293 6.04664ZM2.83757 6.11555C2.82774 6.26322 2.79823 6.28291 2.69989 6.20415C2.5327 6.06633 2.54253 5.9285 2.70972 5.9285C2.7884 5.9285 2.84741 6.0171 2.83757 6.11555ZM11.5117 14.326C11.6691 14.4835 11.6396 14.6312 11.4724 14.4934C11.3937 14.4343 11.2757 14.4146 11.2167 14.454C11.1282 14.5032 11.1184 14.4737 11.1577 14.3556C11.197 14.2571 11.2265 14.0405 11.2364 13.8732L11.2462 13.5581L11.3249 13.883C11.3642 14.0701 11.4527 14.267 11.5117 14.326ZM11.8166 15.0348C11.8166 15.0841 11.7674 15.0644 11.7183 14.9856C11.6691 14.9069 11.6199 14.7887 11.6199 14.7395C11.6199 14.6804 11.6691 14.71 11.7183 14.7887C11.7674 14.8675 11.8166 14.9758 11.8166 15.0348ZM8.57118 14.9856C8.65969 15.153 8.64986 15.1825 8.4925 15.1825C8.25647 15.1825 8.17779 15.1038 8.24664 14.9265C8.31548 14.7297 8.44333 14.7592 8.57118 14.9856Z" fill="white"/>
<path d="M3.53557 2.74868C3.60428 2.77816 3.69261 2.76833 3.72206 2.73886C3.76132 2.70938 3.70243 2.67991 3.59446 2.68973C3.4865 2.68973 3.45705 2.71921 3.53557 2.74868Z" fill="white"/>
<path d="M2.76874 2.91629C2.76874 2.93594 2.83744 2.98507 2.92578 3.01454C3.0043 3.04402 3.04356 3.03419 3.01411 2.97524C2.95522 2.87699 2.76874 2.83769 2.76874 2.91629Z" fill="white"/>
<path d="M15.3669 6.7753C15.3669 6.88338 15.3963 6.91286 15.4257 6.83425C15.4552 6.76548 15.4454 6.67705 15.4159 6.64758C15.3865 6.60828 15.357 6.66723 15.3669 6.7753Z" fill="white"/>
<path d="M15.5539 6.80506C15.5539 6.86401 15.603 6.93278 15.652 6.96226C15.7109 6.99173 15.7502 6.95243 15.7502 6.87383C15.7502 6.78541 15.7109 6.71663 15.652 6.71663C15.603 6.71663 15.5539 6.75593 15.5539 6.80506Z" fill="white"/>
<path d="M15.2094 8.58669C15.1799 8.63581 15.2192 8.68494 15.3075 8.68494C15.3959 8.68494 15.4351 8.63581 15.4057 8.58669C15.3762 8.52774 15.3272 8.48844 15.3075 8.48844C15.2879 8.48844 15.2388 8.52774 15.2094 8.58669Z" fill="white"/>
<path d="M9.82032 10.9394C9.79079 11.0675 9.81048 11.1167 9.90893 11.0773C9.97785 11.0576 10.0074 10.9689 9.97785 10.8901C9.90893 10.7028 9.8794 10.7127 9.82032 10.9394Z" fill="white"/>
<path d="M3.92907 11.3135C3.99777 11.343 4.08611 11.3332 4.11555 11.3037C4.15481 11.2742 4.09592 11.2447 3.98796 11.2545C3.87999 11.2545 3.85055 11.284 3.92907 11.3135Z" fill="white"/>
<path d="M6.11249 11.8249C6.11249 12.0023 6.23063 12.229 6.31924 12.229C6.46692 12.229 6.4177 11.8644 6.26017 11.7954C6.18141 11.7658 6.11249 11.7855 6.11249 11.8249Z" fill="white"/>
<path d="M15.0918 15.448C14.9343 15.5071 14.9245 15.7732 15.0623 15.7732C15.1706 15.7732 15.3183 15.4972 15.2494 15.4381C15.2297 15.4184 15.1509 15.4283 15.0918 15.448Z" fill="white"/>
<path d="M12.5444 15.8129C12.4854 15.9802 12.7606 16.5607 12.8982 16.5607C12.9572 16.5607 12.9965 16.4426 12.9965 16.3049C12.9965 16.1474 12.9572 16.0786 12.8785 16.1278C12.8097 16.1769 12.7901 16.1278 12.8196 15.99C12.8884 15.7539 12.623 15.5965 12.5444 15.8129Z" fill="white"/>
<path d="M14.3245 15.7733C14.2951 15.8225 14.3147 15.8716 14.3638 15.8716C14.4227 15.8716 14.4717 15.8225 14.4717 15.7733C14.4717 15.7144 14.4521 15.6751 14.4325 15.6751C14.403 15.6751 14.3539 15.7144 14.3245 15.7733Z" fill="white"/>
</svg>
