<svg width="63" height="40" viewBox="0 0 63 40" fill="none" xmlns="http://www.w3.org/2000/svg">
<circle cx="18" cy="20" r="17.5" fill="#1D1E26"/>
<circle cx="18" cy="20" r="17.5" fill="url(#paint0_linear_251_197)"/>
<circle cx="18" cy="20" r="17.5" fill="url(#paint1_linear_251_197)"/>
<circle cx="18" cy="20" r="17.5" stroke="url(#paint2_linear_251_197)"/>
<g filter="url(#filter0_ii_251_197)">
<path d="M22.0947 16.9037C22.0947 16.3515 21.647 15.9037 21.0947 15.9037H14.4649C14.1995 15.9037 13.9451 15.7983 13.7575 15.6106L10.8559 12.7068C10.2263 12.0768 10.6726 11 11.5633 11H26.0002C26.5525 11 27.0002 11.4477 27.0002 12V26.4354C27.0002 27.3262 25.9232 27.7724 25.2932 27.1426L22.3878 24.2382C22.2002 24.0506 22.0947 23.7962 22.0947 23.5309V16.9037Z" fill="#9296A9"/>
<path d="M22.0947 16.9037C22.0947 16.3515 21.647 15.9037 21.0947 15.9037H14.4649C14.1995 15.9037 13.9451 15.7983 13.7575 15.6106L10.8559 12.7068C10.2263 12.0768 10.6726 11 11.5633 11H26.0002C26.5525 11 27.0002 11.4477 27.0002 12V26.4354C27.0002 27.3262 25.9232 27.7724 25.2932 27.1426L22.3878 24.2382C22.2002 24.0506 22.0947 23.7962 22.0947 23.5309V16.9037Z" fill="url(#paint3_radial_251_197)"/>
</g>
<g filter="url(#filter1_ii_251_197)">
<path d="M15.0459 23.9505C14.4936 23.9505 14.0459 23.5027 14.0459 22.9505V19.3001C14.0459 18.4093 12.969 17.9631 12.3389 18.5929L9.29302 21.6377C9.1054 21.8253 9 22.0797 9 22.345V28C9 28.5523 9.44772 29 10 29H15.652C15.9174 29 16.1718 28.8946 16.3594 28.7069L19.4068 25.6573C20.0364 25.0272 19.5901 23.9505 18.6994 23.9505H15.0459Z" fill="#30333E"/>
<path d="M15.0459 23.9505C14.4936 23.9505 14.0459 23.5027 14.0459 22.9505V19.3001C14.0459 18.4093 12.969 17.9631 12.3389 18.5929L9.29302 21.6377C9.1054 21.8253 9 22.0797 9 22.345V28C9 28.5523 9.44772 29 10 29H15.652C15.9174 29 16.1718 28.8946 16.3594 28.7069L19.4068 25.6573C20.0364 25.0272 19.5901 23.9505 18.6994 23.9505H15.0459Z" fill="url(#paint4_radial_251_197)"/>
</g>
<circle cx="43" cy="20" r="20" fill="#12131A"/>
<circle cx="43" cy="20" r="17.5" fill="#1D1E26"/>
<circle cx="43" cy="20" r="17.5" fill="url(#paint5_linear_251_197)"/>
<circle cx="43" cy="20" r="17.5" fill="url(#paint6_linear_251_197)"/>
<circle cx="43" cy="20" r="17.5" stroke="url(#paint7_linear_251_197)"/>
<path d="M34.1 16.4157H35.318V17.6272H34.1V16.4157Z" fill="#30333E"/>
<path d="M34.1 16.4157H35.318V17.6272H34.1V16.4157Z" fill="url(#paint8_radial_251_197)"/>
<path d="M34.1 16.4157H35.318V17.6272H34.1V16.4157Z" stroke="url(#paint9_linear_251_197)" stroke-width="0.2" stroke-linecap="round" stroke-linejoin="round"/>
<g filter="url(#filter2_ii_251_197)">
<path d="M35.3674 23.6699V18.5812H34.02V23.6649H35.3674V23.6699ZM44.2891 23.7202V22.4744C44.0923 22.4744 43.9258 22.4643 43.8047 22.4442C43.6634 22.4241 43.5574 22.3739 43.4868 22.3036C43.4161 22.2332 43.3707 22.1328 43.3455 21.9971C43.3253 21.8715 43.3152 21.7058 43.3152 21.5048V19.7316H44.2891V18.5812H43.3152V16.602H41.9679V21.5199C41.9679 21.9369 42.0032 22.2885 42.0738 22.5698C42.1445 22.8461 42.2656 23.0721 42.4321 23.2429C42.5986 23.4137 42.8207 23.5343 43.0881 23.6096C43.3606 23.685 43.7038 23.7202 44.1125 23.7202H44.2891ZM51.9998 23.6699V16.2102H50.6525V23.6699H51.9998ZM40.671 19.0836C40.2976 18.6817 39.7727 18.4808 39.1066 18.4808C38.7837 18.4808 38.4859 18.5461 38.2235 18.6767C37.9561 18.8073 37.7341 18.9881 37.5524 19.2192L37.4817 19.3147V19.2293V18.5812H36.1546V23.6649H37.4918V20.9573V21.1432C37.4918 21.113 37.4918 21.0829 37.4918 21.0527C37.507 20.5755 37.623 20.2239 37.8451 19.9978C38.0822 19.7567 38.3699 19.6361 38.6979 19.6361C39.0865 19.6361 39.3842 19.7567 39.581 19.9878C39.7727 20.2189 39.8737 20.5454 39.8737 20.9623V20.9774V23.6649H41.2311V20.7815C41.2362 20.0581 41.0444 19.4854 40.671 19.0836ZM49.9561 21.118C49.9561 20.7513 49.8905 20.4097 49.7643 20.0883C49.6331 19.7718 49.4514 19.4905 49.2244 19.2493C48.9922 19.0082 48.7147 18.8224 48.3917 18.6867C48.0688 18.5511 47.7105 18.4858 47.3219 18.4858C46.9536 18.4858 46.6054 18.5561 46.2824 18.6918C45.9594 18.8324 45.6769 19.0183 45.4397 19.2544C45.2025 19.4905 45.0107 19.7718 44.8745 20.0933C44.7332 20.4148 44.6676 20.7614 44.6676 21.1281C44.6676 21.4948 44.7332 21.8414 44.8644 22.1629C44.9956 22.4844 45.1823 22.7657 45.4144 23.0018C45.6466 23.2379 45.9342 23.4288 46.2673 23.5644C46.6003 23.7051 46.9687 23.7754 47.3623 23.7754C48.5028 23.7754 49.2092 23.258 49.6331 22.7758L48.6642 22.0423C48.4624 22.2835 47.9779 22.61 47.3724 22.61C46.9939 22.61 46.6811 22.5246 46.4439 22.3488C46.2067 22.178 46.0452 21.9369 45.9594 21.6405L45.9443 21.5953H49.9561V21.118ZM45.9544 20.6509C45.9544 20.2791 46.3833 19.6311 47.3068 19.6261C48.2303 19.6261 48.6642 20.2741 48.6642 20.6458L45.9544 20.6509Z" fill="#9296A9"/>
<path d="M35.3674 23.6699V18.5812H34.02V23.6649H35.3674V23.6699ZM44.2891 23.7202V22.4744C44.0923 22.4744 43.9258 22.4643 43.8047 22.4442C43.6634 22.4241 43.5574 22.3739 43.4868 22.3036C43.4161 22.2332 43.3707 22.1328 43.3455 21.9971C43.3253 21.8715 43.3152 21.7058 43.3152 21.5048V19.7316H44.2891V18.5812H43.3152V16.602H41.9679V21.5199C41.9679 21.9369 42.0032 22.2885 42.0738 22.5698C42.1445 22.8461 42.2656 23.0721 42.4321 23.2429C42.5986 23.4137 42.8207 23.5343 43.0881 23.6096C43.3606 23.685 43.7038 23.7202 44.1125 23.7202H44.2891ZM51.9998 23.6699V16.2102H50.6525V23.6699H51.9998ZM40.671 19.0836C40.2976 18.6817 39.7727 18.4808 39.1066 18.4808C38.7837 18.4808 38.4859 18.5461 38.2235 18.6767C37.9561 18.8073 37.7341 18.9881 37.5524 19.2192L37.4817 19.3147V19.2293V18.5812H36.1546V23.6649H37.4918V20.9573V21.1432C37.4918 21.113 37.4918 21.0829 37.4918 21.0527C37.507 20.5755 37.623 20.2239 37.8451 19.9978C38.0822 19.7567 38.3699 19.6361 38.6979 19.6361C39.0865 19.6361 39.3842 19.7567 39.581 19.9878C39.7727 20.2189 39.8737 20.5454 39.8737 20.9623V20.9774V23.6649H41.2311V20.7815C41.2362 20.0581 41.0444 19.4854 40.671 19.0836ZM49.9561 21.118C49.9561 20.7513 49.8905 20.4097 49.7643 20.0883C49.6331 19.7718 49.4514 19.4905 49.2244 19.2493C48.9922 19.0082 48.7147 18.8224 48.3917 18.6867C48.0688 18.5511 47.7105 18.4858 47.3219 18.4858C46.9536 18.4858 46.6054 18.5561 46.2824 18.6918C45.9594 18.8324 45.6769 19.0183 45.4397 19.2544C45.2025 19.4905 45.0107 19.7718 44.8745 20.0933C44.7332 20.4148 44.6676 20.7614 44.6676 21.1281C44.6676 21.4948 44.7332 21.8414 44.8644 22.1629C44.9956 22.4844 45.1823 22.7657 45.4144 23.0018C45.6466 23.2379 45.9342 23.4288 46.2673 23.5644C46.6003 23.7051 46.9687 23.7754 47.3623 23.7754C48.5028 23.7754 49.2092 23.258 49.6331 22.7758L48.6642 22.0423C48.4624 22.2835 47.9779 22.61 47.3724 22.61C46.9939 22.61 46.6811 22.5246 46.4439 22.3488C46.2067 22.178 46.0452 21.9369 45.9594 21.6405L45.9443 21.5953H49.9561V21.118ZM45.9544 20.6509C45.9544 20.2791 46.3833 19.6311 47.3068 19.6261C48.2303 19.6261 48.6642 20.2741 48.6642 20.6458L45.9544 20.6509Z" fill="url(#paint10_radial_251_197)"/>
</g>
<defs>
<filter id="filter0_ii_251_197" x="10.5615" y="11" width="16.4385" height="17.4375" filterUnits="userSpaceOnUse" color-interpolation-filters="sRGB">
<feFlood flood-opacity="0" result="BackgroundImageFix"/>
<feBlend mode="normal" in="SourceGraphic" in2="BackgroundImageFix" result="shape"/>
<feColorMatrix in="SourceAlpha" type="matrix" values="0 0 0 0 0 0 0 0 0 0 0 0 0 0 0 0 0 0 127 0" result="hardAlpha"/>
<feOffset dy="1"/>
<feGaussianBlur stdDeviation="0.5"/>
<feComposite in2="hardAlpha" operator="arithmetic" k2="-1" k3="1"/>
<feColorMatrix type="matrix" values="0 0 0 0 1 0 0 0 0 1 0 0 0 0 1 0 0 0 0.15 0"/>
<feBlend mode="normal" in2="shape" result="effect1_innerShadow_251_197"/>
<feColorMatrix in="SourceAlpha" type="matrix" values="0 0 0 0 0 0 0 0 0 0 0 0 0 0 0 0 0 0 127 0" result="hardAlpha"/>
<feOffset dy="1"/>
<feGaussianBlur stdDeviation="0.5"/>
<feComposite in2="hardAlpha" operator="arithmetic" k2="-1" k3="1"/>
<feColorMatrix type="matrix" values="0 0 0 0 1 0 0 0 0 1 0 0 0 0 1 0 0 0 0.15 0"/>
<feBlend mode="normal" in2="effect1_innerShadow_251_197" result="effect2_innerShadow_251_197"/>
</filter>
<filter id="filter1_ii_251_197" x="9" y="18.2981" width="10.7012" height="11.7019" filterUnits="userSpaceOnUse" color-interpolation-filters="sRGB">
<feFlood flood-opacity="0" result="BackgroundImageFix"/>
<feBlend mode="normal" in="SourceGraphic" in2="BackgroundImageFix" result="shape"/>
<feColorMatrix in="SourceAlpha" type="matrix" values="0 0 0 0 0 0 0 0 0 0 0 0 0 0 0 0 0 0 127 0" result="hardAlpha"/>
<feOffset dy="1"/>
<feGaussianBlur stdDeviation="0.5"/>
<feComposite in2="hardAlpha" operator="arithmetic" k2="-1" k3="1"/>
<feColorMatrix type="matrix" values="0 0 0 0 0.39908 0 0 0 0 0.429688 0 0 0 0 0.529167 0 0 0 0.15 0"/>
<feBlend mode="normal" in2="shape" result="effect1_innerShadow_251_197"/>
<feColorMatrix in="SourceAlpha" type="matrix" values="0 0 0 0 0 0 0 0 0 0 0 0 0 0 0 0 0 0 127 0" result="hardAlpha"/>
<feOffset dy="1"/>
<feGaussianBlur stdDeviation="0.5"/>
<feComposite in2="hardAlpha" operator="arithmetic" k2="-1" k3="1"/>
<feColorMatrix type="matrix" values="0 0 0 0 0.4 0 0 0 0 0.431373 0 0 0 0 0.529412 0 0 0 0.15 0"/>
<feBlend mode="normal" in2="effect1_innerShadow_251_197" result="effect2_innerShadow_251_197"/>
</filter>
<filter id="filter2_ii_251_197" x="34.02" y="16.2102" width="17.98" height="8.56519" filterUnits="userSpaceOnUse" color-interpolation-filters="sRGB">
<feFlood flood-opacity="0" result="BackgroundImageFix"/>
<feBlend mode="normal" in="SourceGraphic" in2="BackgroundImageFix" result="shape"/>
<feColorMatrix in="SourceAlpha" type="matrix" values="0 0 0 0 0 0 0 0 0 0 0 0 0 0 0 0 0 0 127 0" result="hardAlpha"/>
<feOffset dy="1"/>
<feGaussianBlur stdDeviation="0.5"/>
<feComposite in2="hardAlpha" operator="arithmetic" k2="-1" k3="1"/>
<feColorMatrix type="matrix" values="0 0 0 0 1 0 0 0 0 1 0 0 0 0 1 0 0 0 0.15 0"/>
<feBlend mode="normal" in2="shape" result="effect1_innerShadow_251_197"/>
<feColorMatrix in="SourceAlpha" type="matrix" values="0 0 0 0 0 0 0 0 0 0 0 0 0 0 0 0 0 0 127 0" result="hardAlpha"/>
<feOffset dy="1"/>
<feGaussianBlur stdDeviation="0.5"/>
<feComposite in2="hardAlpha" operator="arithmetic" k2="-1" k3="1"/>
<feColorMatrix type="matrix" values="0 0 0 0 1 0 0 0 0 1 0 0 0 0 1 0 0 0 0.15 0"/>
<feBlend mode="normal" in2="effect1_innerShadow_251_197" result="effect2_innerShadow_251_197"/>
</filter>
<linearGradient id="paint0_linear_251_197" x1="18" y1="2" x2="18" y2="38" gradientUnits="userSpaceOnUse">
<stop stop-color="#292A34"/>
<stop offset="1" stop-color="#1D1E26" stop-opacity="0"/>
</linearGradient>
<linearGradient id="paint1_linear_251_197" x1="18" y1="2" x2="18" y2="38" gradientUnits="userSpaceOnUse">
<stop stop-color="#1D1E26" stop-opacity="0"/>
<stop offset="1" stop-color="#181920"/>
</linearGradient>
<linearGradient id="paint2_linear_251_197" x1="18" y1="2" x2="18" y2="23.1304" gradientUnits="userSpaceOnUse">
<stop stop-color="#2D2E37"/>
<stop offset="1" stop-color="#1D1E26" stop-opacity="0"/>
</linearGradient>
<radialGradient id="paint3_radial_251_197" cx="0" cy="0" r="1" gradientUnits="userSpaceOnUse" gradientTransform="translate(18.0753 11) rotate(90) scale(17.849 44.6245)">
<stop stop-color="#C0C4D6"/>
<stop offset="1" stop-color="#9296A9" stop-opacity="0"/>
</radialGradient>
<radialGradient id="paint4_radial_251_197" cx="0" cy="0" r="1" gradientUnits="userSpaceOnUse" gradientTransform="translate(15.0562 16.6972) rotate(90) scale(12.3028 12.3016)">
<stop stop-color="#4B4F5F"/>
<stop offset="1" stop-color="#30333E" stop-opacity="0"/>
</radialGradient>
<linearGradient id="paint5_linear_251_197" x1="43" y1="2" x2="43" y2="38" gradientUnits="userSpaceOnUse">
<stop stop-color="#292A34"/>
<stop offset="1" stop-color="#1D1E26" stop-opacity="0"/>
</linearGradient>
<linearGradient id="paint6_linear_251_197" x1="43" y1="2" x2="43" y2="38" gradientUnits="userSpaceOnUse">
<stop stop-color="#1D1E26" stop-opacity="0"/>
<stop offset="1" stop-color="#181920"/>
</linearGradient>
<linearGradient id="paint7_linear_251_197" x1="43" y1="2" x2="43" y2="23.1304" gradientUnits="userSpaceOnUse">
<stop stop-color="#2D2E37"/>
<stop offset="1" stop-color="#1D1E26" stop-opacity="0"/>
</linearGradient>
<radialGradient id="paint8_radial_251_197" cx="0" cy="0" r="1" gradientUnits="userSpaceOnUse" gradientTransform="translate(34.709 16.2936) rotate(90) scale(1.43362 1.44015)">
<stop stop-color="#4B4F5F"/>
<stop offset="1" stop-color="#30333E" stop-opacity="0"/>
</radialGradient>
<linearGradient id="paint9_linear_251_197" x1="34.709" y1="16.3157" x2="34.709" y2="17.0215" gradientUnits="userSpaceOnUse">
<stop stop-color="#484C59"/>
<stop offset="1" stop-color="#30333E" stop-opacity="0"/>
</linearGradient>
<radialGradient id="paint10_radial_251_197" cx="0" cy="0" r="1" gradientUnits="userSpaceOnUse" gradientTransform="translate(43.0099 16.2102) rotate(90) scale(7.5652 44.9495)">
<stop stop-color="#C0C4D6"/>
<stop offset="1" stop-color="#9296A9" stop-opacity="0"/>
</radialGradient>
</defs>
</svg>
