<svg width="63" height="40" viewBox="0 0 63 40" fill="none" xmlns="http://www.w3.org/2000/svg">
<circle cx="18" cy="20" r="17.5" fill="#1D1E26"/>
<circle cx="18" cy="20" r="17.5" fill="url(#paint0_linear_251_171)"/>
<circle cx="18" cy="20" r="17.5" fill="url(#paint1_linear_251_171)"/>
<circle cx="18" cy="20" r="17.5" stroke="url(#paint2_linear_251_171)"/>
<g filter="url(#filter0_ii_251_171)">
<path d="M15.2253 12.7168L9.86448 13.4501C9.36918 13.5179 9 13.941 9 14.4409V18.6506C9 19.2028 9.44772 19.6506 10 19.6506H15.3608C15.9131 19.6506 16.3608 19.2028 16.3608 18.6506V13.7076C16.3608 13.1015 15.8259 12.6347 15.2253 12.7168Z" fill="#30333E"/>
<path d="M15.2253 12.7168L9.86448 13.4501C9.36918 13.5179 9 13.941 9 14.4409V18.6506C9 19.2028 9.44772 19.6506 10 19.6506H15.3608C15.9131 19.6506 16.3608 19.2028 16.3608 18.6506V13.7076C16.3608 13.1015 15.8259 12.6347 15.2253 12.7168Z" fill="url(#paint3_radial_251_171)"/>
</g>
<g filter="url(#filter1_ii_251_171)">
<path d="M25.8558 11.1663L18.1032 12.2933C17.6117 12.3648 17.2471 12.7862 17.2471 13.2829V18.589C17.2471 19.1413 17.6948 19.589 18.2471 19.589H25.9996C26.5519 19.589 26.9996 19.1413 26.9996 18.589V12.1559C26.9996 11.5463 26.459 11.0786 25.8558 11.1663Z" fill="#9296A9"/>
<path d="M25.8558 11.1663L18.1032 12.2933C17.6117 12.3648 17.2471 12.7862 17.2471 13.2829V18.589C17.2471 19.1413 17.6948 19.589 18.2471 19.589H25.9996C26.5519 19.589 26.9996 19.1413 26.9996 18.589V12.1559C26.9996 11.5463 26.459 11.0786 25.8558 11.1663Z" fill="url(#paint4_radial_251_171)"/>
</g>
<g filter="url(#filter2_ii_251_171)">
<path d="M15.3608 20.3987H10C9.44772 20.3987 9 20.8464 9 21.3987V25.6108C9 26.1096 9.36768 26.5322 9.86176 26.6012L15.2226 27.3494C15.824 27.4333 16.3608 26.9663 16.3608 26.359V21.3987C16.3608 20.8464 15.9131 20.3987 15.3608 20.3987Z" fill="#9296A9"/>
<path d="M15.3608 20.3987H10C9.44772 20.3987 9 20.8464 9 21.3987V25.6108C9 26.1096 9.36768 26.5322 9.86176 26.6012L15.2226 27.3494C15.824 27.4333 16.3608 26.9663 16.3608 26.359V21.3987C16.3608 20.8464 15.9131 20.3987 15.3608 20.3987Z" fill="url(#paint5_radial_251_171)"/>
</g>
<g filter="url(#filter3_ii_251_171)">
<path d="M25.9996 20.4932H18.2471C17.6948 20.4932 17.2471 20.9409 17.2471 21.4932V26.7546C17.2471 27.2528 17.6139 27.6751 18.1073 27.7447L25.8599 28.8391C26.4618 28.9241 26.9996 28.4568 26.9996 27.8489V21.4932C26.9996 20.9409 26.5519 20.4932 25.9996 20.4932Z" fill="#30333E"/>
<path d="M25.9996 20.4932H18.2471C17.6948 20.4932 17.2471 20.9409 17.2471 21.4932V26.7546C17.2471 27.2528 17.6139 27.6751 18.1073 27.7447L25.8599 28.8391C26.4618 28.9241 26.9996 28.4568 26.9996 27.8489V21.4932C26.9996 20.9409 26.5519 20.4932 25.9996 20.4932Z" fill="url(#paint6_radial_251_171)"/>
</g>
<circle cx="43" cy="20" r="20" fill="#12131A"/>
<circle cx="43" cy="20" r="17.5" fill="#1D1E26"/>
<circle cx="43" cy="20" r="17.5" fill="url(#paint7_linear_251_171)"/>
<circle cx="43" cy="20" r="17.5" fill="url(#paint8_linear_251_171)"/>
<circle cx="43" cy="20" r="17.5" stroke="url(#paint9_linear_251_171)"/>
<g filter="url(#filter4_ii_251_171)">
<path d="M41.532 11H35C34.4477 11 34 11.4477 34 12V18.5316C34 19.0839 34.4477 19.5316 35 19.5316H41.532C42.0842 19.5316 42.532 19.0839 42.532 18.5316V12C42.532 11.4477 42.0842 11 41.532 11Z" fill="#30333E"/>
<path d="M41.532 11H35C34.4477 11 34 11.4477 34 12V18.5316C34 19.0839 34.4477 19.5316 35 19.5316H41.532C42.0842 19.5316 42.532 19.0839 42.532 18.5316V12C42.532 11.4477 42.0842 11 41.532 11Z" fill="url(#paint10_radial_251_171)"/>
</g>
<g filter="url(#filter5_ii_251_171)">
<path d="M50.9997 11H44.4678C43.9155 11 43.4678 11.4477 43.4678 12V18.5316C43.4678 19.0839 43.9155 19.5316 44.4678 19.5316H50.9997C51.552 19.5316 51.9997 19.0839 51.9997 18.5316V12C51.9997 11.4477 51.552 11 50.9997 11Z" fill="#9296A9"/>
<path d="M50.9997 11H44.4678C43.9155 11 43.4678 11.4477 43.4678 12V18.5316C43.4678 19.0839 43.9155 19.5316 44.4678 19.5316H50.9997C51.552 19.5316 51.9997 19.0839 51.9997 18.5316V12C51.9997 11.4477 51.552 11 50.9997 11Z" fill="url(#paint11_radial_251_171)"/>
</g>
<g filter="url(#filter6_ii_251_171)">
<path d="M41.532 20.4685H35C34.4477 20.4685 34 20.9162 34 21.4685V28.0001C34 28.5524 34.4477 29.0001 35 29.0001H41.532C42.0842 29.0001 42.532 28.5524 42.532 28.0001V21.4685C42.532 20.9162 42.0842 20.4685 41.532 20.4685Z" fill="#9296A9"/>
<path d="M41.532 20.4685H35C34.4477 20.4685 34 20.9162 34 21.4685V28.0001C34 28.5524 34.4477 29.0001 35 29.0001H41.532C42.0842 29.0001 42.532 28.5524 42.532 28.0001V21.4685C42.532 20.9162 42.0842 20.4685 41.532 20.4685Z" fill="url(#paint12_radial_251_171)"/>
</g>
<g filter="url(#filter7_ii_251_171)">
<path d="M50.9997 20.4685H44.4678C43.9155 20.4685 43.4678 20.9162 43.4678 21.4685V28.0001C43.4678 28.5524 43.9155 29.0001 44.4678 29.0001H50.9997C51.552 29.0001 51.9997 28.5524 51.9997 28.0001V21.4685C51.9997 20.9162 51.552 20.4685 50.9997 20.4685Z" fill="#30333E"/>
<path d="M50.9997 20.4685H44.4678C43.9155 20.4685 43.4678 20.9162 43.4678 21.4685V28.0001C43.4678 28.5524 43.9155 29.0001 44.4678 29.0001H50.9997C51.552 29.0001 51.9997 28.5524 51.9997 28.0001V21.4685C51.9997 20.9162 51.552 20.4685 50.9997 20.4685Z" fill="url(#paint13_radial_251_171)"/>
</g>
<defs>
<filter id="filter0_ii_251_171" x="9" y="12.7075" width="7.36084" height="7.94312" filterUnits="userSpaceOnUse" color-interpolation-filters="sRGB">
<feFlood flood-opacity="0" result="BackgroundImageFix"/>
<feBlend mode="normal" in="SourceGraphic" in2="BackgroundImageFix" result="shape"/>
<feColorMatrix in="SourceAlpha" type="matrix" values="0 0 0 0 0 0 0 0 0 0 0 0 0 0 0 0 0 0 127 0" result="hardAlpha"/>
<feOffset dy="1"/>
<feGaussianBlur stdDeviation="0.5"/>
<feComposite in2="hardAlpha" operator="arithmetic" k2="-1" k3="1"/>
<feColorMatrix type="matrix" values="0 0 0 0 0.39908 0 0 0 0 0.429688 0 0 0 0 0.529167 0 0 0 0.15 0"/>
<feBlend mode="normal" in2="shape" result="effect1_innerShadow_251_171"/>
<feColorMatrix in="SourceAlpha" type="matrix" values="0 0 0 0 0 0 0 0 0 0 0 0 0 0 0 0 0 0 127 0" result="hardAlpha"/>
<feOffset dy="1"/>
<feGaussianBlur stdDeviation="0.5"/>
<feComposite in2="hardAlpha" operator="arithmetic" k2="-1" k3="1"/>
<feColorMatrix type="matrix" values="0 0 0 0 0.4 0 0 0 0 0.431373 0 0 0 0 0.529412 0 0 0 0.15 0"/>
<feBlend mode="normal" in2="effect1_innerShadow_251_171" result="effect2_innerShadow_251_171"/>
</filter>
<filter id="filter1_ii_251_171" x="17.2471" y="11.1558" width="9.75244" height="9.43335" filterUnits="userSpaceOnUse" color-interpolation-filters="sRGB">
<feFlood flood-opacity="0" result="BackgroundImageFix"/>
<feBlend mode="normal" in="SourceGraphic" in2="BackgroundImageFix" result="shape"/>
<feColorMatrix in="SourceAlpha" type="matrix" values="0 0 0 0 0 0 0 0 0 0 0 0 0 0 0 0 0 0 127 0" result="hardAlpha"/>
<feOffset dy="1"/>
<feGaussianBlur stdDeviation="0.5"/>
<feComposite in2="hardAlpha" operator="arithmetic" k2="-1" k3="1"/>
<feColorMatrix type="matrix" values="0 0 0 0 1 0 0 0 0 1 0 0 0 0 1 0 0 0 0.15 0"/>
<feBlend mode="normal" in2="shape" result="effect1_innerShadow_251_171"/>
<feColorMatrix in="SourceAlpha" type="matrix" values="0 0 0 0 0 0 0 0 0 0 0 0 0 0 0 0 0 0 127 0" result="hardAlpha"/>
<feOffset dy="1"/>
<feGaussianBlur stdDeviation="0.5"/>
<feComposite in2="hardAlpha" operator="arithmetic" k2="-1" k3="1"/>
<feColorMatrix type="matrix" values="0 0 0 0 1 0 0 0 0 1 0 0 0 0 1 0 0 0 0.15 0"/>
<feBlend mode="normal" in2="effect1_innerShadow_251_171" result="effect2_innerShadow_251_171"/>
</filter>
<filter id="filter2_ii_251_171" x="9" y="20.3987" width="7.36084" height="7.96045" filterUnits="userSpaceOnUse" color-interpolation-filters="sRGB">
<feFlood flood-opacity="0" result="BackgroundImageFix"/>
<feBlend mode="normal" in="SourceGraphic" in2="BackgroundImageFix" result="shape"/>
<feColorMatrix in="SourceAlpha" type="matrix" values="0 0 0 0 0 0 0 0 0 0 0 0 0 0 0 0 0 0 127 0" result="hardAlpha"/>
<feOffset dy="1"/>
<feGaussianBlur stdDeviation="0.5"/>
<feComposite in2="hardAlpha" operator="arithmetic" k2="-1" k3="1"/>
<feColorMatrix type="matrix" values="0 0 0 0 1 0 0 0 0 1 0 0 0 0 1 0 0 0 0.15 0"/>
<feBlend mode="normal" in2="shape" result="effect1_innerShadow_251_171"/>
<feColorMatrix in="SourceAlpha" type="matrix" values="0 0 0 0 0 0 0 0 0 0 0 0 0 0 0 0 0 0 127 0" result="hardAlpha"/>
<feOffset dy="1"/>
<feGaussianBlur stdDeviation="0.5"/>
<feComposite in2="hardAlpha" operator="arithmetic" k2="-1" k3="1"/>
<feColorMatrix type="matrix" values="0 0 0 0 1 0 0 0 0 1 0 0 0 0 1 0 0 0 0.15 0"/>
<feBlend mode="normal" in2="effect1_innerShadow_251_171" result="effect2_innerShadow_251_171"/>
</filter>
<filter id="filter3_ii_251_171" x="17.2471" y="20.4932" width="9.75244" height="9.35596" filterUnits="userSpaceOnUse" color-interpolation-filters="sRGB">
<feFlood flood-opacity="0" result="BackgroundImageFix"/>
<feBlend mode="normal" in="SourceGraphic" in2="BackgroundImageFix" result="shape"/>
<feColorMatrix in="SourceAlpha" type="matrix" values="0 0 0 0 0 0 0 0 0 0 0 0 0 0 0 0 0 0 127 0" result="hardAlpha"/>
<feOffset dy="1"/>
<feGaussianBlur stdDeviation="0.5"/>
<feComposite in2="hardAlpha" operator="arithmetic" k2="-1" k3="1"/>
<feColorMatrix type="matrix" values="0 0 0 0 0.39908 0 0 0 0 0.429688 0 0 0 0 0.529167 0 0 0 0.15 0"/>
<feBlend mode="normal" in2="shape" result="effect1_innerShadow_251_171"/>
<feColorMatrix in="SourceAlpha" type="matrix" values="0 0 0 0 0 0 0 0 0 0 0 0 0 0 0 0 0 0 127 0" result="hardAlpha"/>
<feOffset dy="1"/>
<feGaussianBlur stdDeviation="0.5"/>
<feComposite in2="hardAlpha" operator="arithmetic" k2="-1" k3="1"/>
<feColorMatrix type="matrix" values="0 0 0 0 0.4 0 0 0 0 0.431373 0 0 0 0 0.529412 0 0 0 0.15 0"/>
<feBlend mode="normal" in2="effect1_innerShadow_251_171" result="effect2_innerShadow_251_171"/>
</filter>
<filter id="filter4_ii_251_171" x="34" y="11" width="8.53174" height="9.53149" filterUnits="userSpaceOnUse" color-interpolation-filters="sRGB">
<feFlood flood-opacity="0" result="BackgroundImageFix"/>
<feBlend mode="normal" in="SourceGraphic" in2="BackgroundImageFix" result="shape"/>
<feColorMatrix in="SourceAlpha" type="matrix" values="0 0 0 0 0 0 0 0 0 0 0 0 0 0 0 0 0 0 127 0" result="hardAlpha"/>
<feOffset dy="1"/>
<feGaussianBlur stdDeviation="0.5"/>
<feComposite in2="hardAlpha" operator="arithmetic" k2="-1" k3="1"/>
<feColorMatrix type="matrix" values="0 0 0 0 0.39908 0 0 0 0 0.429688 0 0 0 0 0.529167 0 0 0 0.15 0"/>
<feBlend mode="normal" in2="shape" result="effect1_innerShadow_251_171"/>
<feColorMatrix in="SourceAlpha" type="matrix" values="0 0 0 0 0 0 0 0 0 0 0 0 0 0 0 0 0 0 127 0" result="hardAlpha"/>
<feOffset dy="1"/>
<feGaussianBlur stdDeviation="0.5"/>
<feComposite in2="hardAlpha" operator="arithmetic" k2="-1" k3="1"/>
<feColorMatrix type="matrix" values="0 0 0 0 0.4 0 0 0 0 0.431373 0 0 0 0 0.529412 0 0 0 0.15 0"/>
<feBlend mode="normal" in2="effect1_innerShadow_251_171" result="effect2_innerShadow_251_171"/>
</filter>
<filter id="filter5_ii_251_171" x="43.4678" y="11" width="8.53174" height="9.53149" filterUnits="userSpaceOnUse" color-interpolation-filters="sRGB">
<feFlood flood-opacity="0" result="BackgroundImageFix"/>
<feBlend mode="normal" in="SourceGraphic" in2="BackgroundImageFix" result="shape"/>
<feColorMatrix in="SourceAlpha" type="matrix" values="0 0 0 0 0 0 0 0 0 0 0 0 0 0 0 0 0 0 127 0" result="hardAlpha"/>
<feOffset dy="1"/>
<feGaussianBlur stdDeviation="0.5"/>
<feComposite in2="hardAlpha" operator="arithmetic" k2="-1" k3="1"/>
<feColorMatrix type="matrix" values="0 0 0 0 1 0 0 0 0 1 0 0 0 0 1 0 0 0 0.15 0"/>
<feBlend mode="normal" in2="shape" result="effect1_innerShadow_251_171"/>
<feColorMatrix in="SourceAlpha" type="matrix" values="0 0 0 0 0 0 0 0 0 0 0 0 0 0 0 0 0 0 127 0" result="hardAlpha"/>
<feOffset dy="1"/>
<feGaussianBlur stdDeviation="0.5"/>
<feComposite in2="hardAlpha" operator="arithmetic" k2="-1" k3="1"/>
<feColorMatrix type="matrix" values="0 0 0 0 1 0 0 0 0 1 0 0 0 0 1 0 0 0 0.15 0"/>
<feBlend mode="normal" in2="effect1_innerShadow_251_171" result="effect2_innerShadow_251_171"/>
</filter>
<filter id="filter6_ii_251_171" x="34" y="20.4685" width="8.53174" height="9.53149" filterUnits="userSpaceOnUse" color-interpolation-filters="sRGB">
<feFlood flood-opacity="0" result="BackgroundImageFix"/>
<feBlend mode="normal" in="SourceGraphic" in2="BackgroundImageFix" result="shape"/>
<feColorMatrix in="SourceAlpha" type="matrix" values="0 0 0 0 0 0 0 0 0 0 0 0 0 0 0 0 0 0 127 0" result="hardAlpha"/>
<feOffset dy="1"/>
<feGaussianBlur stdDeviation="0.5"/>
<feComposite in2="hardAlpha" operator="arithmetic" k2="-1" k3="1"/>
<feColorMatrix type="matrix" values="0 0 0 0 1 0 0 0 0 1 0 0 0 0 1 0 0 0 0.15 0"/>
<feBlend mode="normal" in2="shape" result="effect1_innerShadow_251_171"/>
<feColorMatrix in="SourceAlpha" type="matrix" values="0 0 0 0 0 0 0 0 0 0 0 0 0 0 0 0 0 0 127 0" result="hardAlpha"/>
<feOffset dy="1"/>
<feGaussianBlur stdDeviation="0.5"/>
<feComposite in2="hardAlpha" operator="arithmetic" k2="-1" k3="1"/>
<feColorMatrix type="matrix" values="0 0 0 0 1 0 0 0 0 1 0 0 0 0 1 0 0 0 0.15 0"/>
<feBlend mode="normal" in2="effect1_innerShadow_251_171" result="effect2_innerShadow_251_171"/>
</filter>
<filter id="filter7_ii_251_171" x="43.4678" y="20.4685" width="8.53174" height="9.53149" filterUnits="userSpaceOnUse" color-interpolation-filters="sRGB">
<feFlood flood-opacity="0" result="BackgroundImageFix"/>
<feBlend mode="normal" in="SourceGraphic" in2="BackgroundImageFix" result="shape"/>
<feColorMatrix in="SourceAlpha" type="matrix" values="0 0 0 0 0 0 0 0 0 0 0 0 0 0 0 0 0 0 127 0" result="hardAlpha"/>
<feOffset dy="1"/>
<feGaussianBlur stdDeviation="0.5"/>
<feComposite in2="hardAlpha" operator="arithmetic" k2="-1" k3="1"/>
<feColorMatrix type="matrix" values="0 0 0 0 0.39908 0 0 0 0 0.429688 0 0 0 0 0.529167 0 0 0 0.15 0"/>
<feBlend mode="normal" in2="shape" result="effect1_innerShadow_251_171"/>
<feColorMatrix in="SourceAlpha" type="matrix" values="0 0 0 0 0 0 0 0 0 0 0 0 0 0 0 0 0 0 127 0" result="hardAlpha"/>
<feOffset dy="1"/>
<feGaussianBlur stdDeviation="0.5"/>
<feComposite in2="hardAlpha" operator="arithmetic" k2="-1" k3="1"/>
<feColorMatrix type="matrix" values="0 0 0 0 0.4 0 0 0 0 0.431373 0 0 0 0 0.529412 0 0 0 0.15 0"/>
<feBlend mode="normal" in2="effect1_innerShadow_251_171" result="effect2_innerShadow_251_171"/>
</filter>
<linearGradient id="paint0_linear_251_171" x1="18" y1="2" x2="18" y2="38" gradientUnits="userSpaceOnUse">
<stop stop-color="#292A34"/>
<stop offset="1" stop-color="#1D1E26" stop-opacity="0"/>
</linearGradient>
<linearGradient id="paint1_linear_251_171" x1="18" y1="2" x2="18" y2="38" gradientUnits="userSpaceOnUse">
<stop stop-color="#1D1E26" stop-opacity="0"/>
<stop offset="1" stop-color="#181920"/>
</linearGradient>
<linearGradient id="paint2_linear_251_171" x1="18" y1="2" x2="18" y2="23.1304" gradientUnits="userSpaceOnUse">
<stop stop-color="#2D2E37"/>
<stop offset="1" stop-color="#1D1E26" stop-opacity="0"/>
</linearGradient>
<radialGradient id="paint3_radial_251_171" cx="0" cy="0" r="1" gradientUnits="userSpaceOnUse" gradientTransform="translate(12.6804 12.4508) rotate(90) scale(7.1998 7.47583)">
<stop stop-color="#4B4F5F"/>
<stop offset="1" stop-color="#30333E" stop-opacity="0"/>
</radialGradient>
<radialGradient id="paint4_radial_251_171" cx="0" cy="0" r="1" gradientUnits="userSpaceOnUse" gradientTransform="translate(22.1234 11) rotate(90) scale(8.58904 24.3814)">
<stop stop-color="#C0C4D6"/>
<stop offset="1" stop-color="#9296A9" stop-opacity="0"/>
</radialGradient>
<radialGradient id="paint5_radial_251_171" cx="0" cy="0" r="1" gradientUnits="userSpaceOnUse" gradientTransform="translate(12.6804 20.3987) rotate(90) scale(7.10959 18.4021)">
<stop stop-color="#C0C4D6"/>
<stop offset="1" stop-color="#9296A9" stop-opacity="0"/>
</radialGradient>
<radialGradient id="paint6_radial_251_171" cx="0" cy="0" r="1" gradientUnits="userSpaceOnUse" gradientTransform="translate(22.1234 20.3603) rotate(90) scale(8.63976 9.90496)">
<stop stop-color="#4B4F5F"/>
<stop offset="1" stop-color="#30333E" stop-opacity="0"/>
</radialGradient>
<linearGradient id="paint7_linear_251_171" x1="43" y1="2" x2="43" y2="38" gradientUnits="userSpaceOnUse">
<stop stop-color="#292A34"/>
<stop offset="1" stop-color="#1D1E26" stop-opacity="0"/>
</linearGradient>
<linearGradient id="paint8_linear_251_171" x1="43" y1="2" x2="43" y2="38" gradientUnits="userSpaceOnUse">
<stop stop-color="#1D1E26" stop-opacity="0"/>
<stop offset="1" stop-color="#181920"/>
</linearGradient>
<linearGradient id="paint9_linear_251_171" x1="43" y1="2" x2="43" y2="23.1304" gradientUnits="userSpaceOnUse">
<stop stop-color="#2D2E37"/>
<stop offset="1" stop-color="#1D1E26" stop-opacity="0"/>
</linearGradient>
<radialGradient id="paint10_radial_251_171" cx="0" cy="0" r="1" gradientUnits="userSpaceOnUse" gradientTransform="translate(38.266 10.8667) rotate(90) scale(8.6649 8.66526)">
<stop stop-color="#4B4F5F"/>
<stop offset="1" stop-color="#30333E" stop-opacity="0"/>
</radialGradient>
<radialGradient id="paint11_radial_251_171" cx="0" cy="0" r="1" gradientUnits="userSpaceOnUse" gradientTransform="translate(47.7337 11) rotate(90) scale(8.5316 21.3299)">
<stop stop-color="#C0C4D6"/>
<stop offset="1" stop-color="#9296A9" stop-opacity="0"/>
</radialGradient>
<radialGradient id="paint12_radial_251_171" cx="0" cy="0" r="1" gradientUnits="userSpaceOnUse" gradientTransform="translate(38.266 20.4685) rotate(90) scale(8.53161 21.3299)">
<stop stop-color="#C0C4D6"/>
<stop offset="1" stop-color="#9296A9" stop-opacity="0"/>
</radialGradient>
<radialGradient id="paint13_radial_251_171" cx="0" cy="0" r="1" gradientUnits="userSpaceOnUse" gradientTransform="translate(47.7337 20.3352) rotate(90) scale(8.66491 8.66526)">
<stop stop-color="#4B4F5F"/>
<stop offset="1" stop-color="#30333E" stop-opacity="0"/>
</radialGradient>
</defs>
</svg>
