<svg width="18" height="14" viewBox="0 0 18 14" fill="none" xmlns="http://www.w3.org/2000/svg">
<mask id="mask0_318_33" style="mask-type:alpha" maskUnits="userSpaceOnUse" x="0" y="0" width="18" height="14">
<path d="M0 0H2.90092C3.27696 5.62771 3.46498 8.50728 3.46498 8.63868H3.49184C3.70673 5.45631 3.97533 2.57675 4.29765 0H7.35973C7.40897 0 7.44479 0.331378 7.46717 0.994134C7.52089 1.46835 7.70891 4.10795 8.03124 8.91293H8.0581C8.0581 7.65026 8.31775 4.67929 8.83705 0H11.738C11.4335 3.13667 10.9948 7.50171 10.4218 13.0951H6.71508C6.44648 11.5811 6.15102 9.36429 5.82869 6.44473H5.80183C5.74811 7.06178 5.48846 9.27859 5.02288 13.0951H1.31616L0 0Z" fill="white"/>
<path d="M11.9263 0H17.399V2.53676L15.1965 10.4556H17.399V13.0951H11.9195V11.2783C11.9195 11.2269 12.6716 8.3473 14.1758 2.6396H11.9263V0Z" fill="white"/>
</mask>
<g mask="url(#mask0_318_33)">
<path d="M0 0H2.90092C3.27696 5.62771 3.46498 8.50728 3.46498 8.63868H3.49184C3.70673 5.45631 3.97533 2.57675 4.29765 0H7.35973C7.40897 0 7.44479 0.331378 7.46717 0.994134C7.52089 1.46835 7.70891 4.10795 8.03124 8.91293H8.0581C8.0581 7.65026 8.31775 4.67929 8.83705 0H11.738C11.4335 3.13667 10.9948 7.50171 10.4218 13.0951H6.71508C6.44648 11.5811 6.15102 9.36429 5.82869 6.44473H5.80183C5.74811 7.06178 5.48846 9.27859 5.02288 13.0951H1.31616L0 0Z" fill="#9296A9"/>
<path d="M11.9263 0H17.399V2.53676L15.1965 10.4556H17.399V13.0951H11.9195V11.2783C11.9195 11.2269 12.6716 8.3473 14.1758 2.6396H11.9263V0Z" fill="#9296A9"/>
</g>
</svg>
