<svg width="18" height="14" viewBox="0 0 18 14" fill="none" xmlns="http://www.w3.org/2000/svg">
<path d="M0.300537 0.452637H3.20145C3.5775 6.08035 3.76552 8.95991 3.76552 9.09132H3.79238C4.00726 5.90895 4.27587 3.02939 4.59819 0.452637H7.66027C7.70951 0.452637 7.74532 0.784015 7.76771 1.44677C7.82143 1.92098 8.00945 4.56058 8.33178 9.36556H8.35864C8.35864 8.1029 8.61829 5.13192 9.13759 0.452637H12.0385C11.7341 3.5893 11.2954 7.95435 10.7223 13.5478H7.01562C6.74702 12.0337 6.45155 9.81692 6.12923 6.89737H6.10237C6.04865 7.51442 5.789 9.73122 5.32342 13.5478H1.61669L0.300537 0.452637Z" fill="white"/>
<path d="M12.2268 0.452637H17.6996V2.98939L15.497 10.9082H17.6996V13.5478H12.2201V11.7309C12.2201 11.6795 12.9722 8.79994 14.4763 3.09223H12.2268V0.452637Z" fill="white"/>
</svg>
