<svg width="18" height="18" viewBox="0 0 18 18" fill="none" xmlns="http://www.w3.org/2000/svg">
<path d="M15.2905 5.36809L8.99993 8.99997M8.99993 8.99997L2.70685 5.3623M8.99993 8.99997L9 15.75" stroke="#3C3F4C" stroke-width="1.5" stroke-linecap="round" stroke-linejoin="round"/>
<path d="M6.37499 3.37501L12 6.75001M8.24999 1.93302C8.71409 1.66507 9.28589 1.66507 9.74999 1.93302L14.7452 4.817C15.2093 5.08495 15.4952 5.58014 15.4952 6.11603V11.884C15.4952 12.4199 15.2093 12.9151 14.7452 13.1831L9.74999 16.067C9.28589 16.3349 8.71409 16.3349 8.24999 16.067L3.25481 13.1831C2.7907 12.9151 2.50481 12.4199 2.50481 11.884V6.11603C2.50481 5.58014 2.7907 5.08495 3.25481 4.817L8.24999 1.93302Z" stroke="#3C3F4C" stroke-width="1.5" stroke-linecap="round" stroke-linejoin="round"/>
</svg>
