<svg width="18" height="19" viewBox="0 0 18 19" fill="none" xmlns="http://www.w3.org/2000/svg">
<path d="M5.97613 8.63859L2.24985 8.02771V11.7418L5.97613 11.1309V8.63859Z" fill="white"/>
<path d="M7.84537 8.63867H6.59918V11.1188H7.84537V8.63867Z" fill="white"/>
<path d="M10.6309 6.47616L11.2417 2.74988H7.52768L8.13856 6.47616H10.6309Z" fill="white"/>
<path d="M10.6187 7.09924H8.13858V8.3454H10.6187V7.09924Z" fill="white"/>
<path d="M9.38455 9.00378L8.50339 9.88495L9.38455 10.7661L10.2657 9.88495L9.38455 9.00378Z" fill="white"/>
<path d="M10.9243 13.1712L13.1112 16.25L15.7502 13.6111L12.6714 11.4242L10.9243 13.1712Z" fill="white"/>
<path d="M11.3577 10.1069L9.60403 11.8606L10.4852 12.7418L12.2389 10.9881L11.3577 10.1069Z" fill="white"/>
</svg>
