<svg width="77" height="20" viewBox="0 0 77 20" fill="none" xmlns="http://www.w3.org/2000/svg">
<path d="M0 6.58953V0H6.73287V1.48796H2.74302V2.33822H4.32234V4.03874H2.74302V4.889H6.73287V6.58953H0Z" fill="white"/>
<path d="M35.1394 6.58953V0H41.8723V1.48796H37.8824V2.33822H39.4618V4.03874H37.8824V4.889H41.8723V6.58953H35.1394Z" fill="white"/>
<path d="M7.14409 6.58953V4.889H10.9677V3.93246H7.14409V1.59424L8.39092 0H13.7107V1.48796H9.72087V2.33822H13.7107V5.63298L12.9626 6.58953H7.14409Z" fill="white"/>
<path d="M20.6889 0H14.1223V6.58953H20.6889V4.889H16.6991V1.48796H20.6889V0Z" fill="white"/>
<path fill-rule="evenodd" clip-rule="evenodd" d="M21.1 6.58953H23.7599V5.73926H25.0899V6.58953H27.7498V0H21.8481L21.1 0.956544V6.58953ZM23.6767 1.38147H25.1746V4.14482H23.6767V1.38147Z" fill="white"/>
<path fill-rule="evenodd" clip-rule="evenodd" d="M28.1612 0H34.7278V4.57015H30.738V6.58953H28.1612V0ZM30.6551 1.27524H32.153V2.86948H30.6551V1.27524Z" fill="white"/>
<path d="M45.2596 6.58953V0H51.9925V1.48796H48.0027V2.33822H49.582V4.03874H48.0027V6.58953H45.2596Z" fill="white"/>
<path fill-rule="evenodd" clip-rule="evenodd" d="M52.4045 0H58.9711V4.57015H57.3918L58.9711 6.58953H56.5606L54.9812 4.57015V6.58953H52.4045V0ZM54.8979 1.27524H56.3958V2.86948H54.8979V1.27524Z" fill="white"/>
<path fill-rule="evenodd" clip-rule="evenodd" d="M59.3822 6.58953H65.2007L65.9488 5.63298V0H60.629L59.3822 1.59424V6.58953ZM61.8758 1.27524H63.457V4.99513H61.8758V1.27524Z" fill="white"/>
<path d="M68.8541 0H66.3604V6.58953H69.0203V4.57015L70.5996 6.58953H72.7608L74.3401 4.57015V6.58953H77V0H74.5063L71.6802 3.61361L68.8541 0Z" fill="white"/>
<path fill-rule="evenodd" clip-rule="evenodd" d="M51.071 20H61.1756L62.4748 18.3326V8.51318H53.2363L51.071 11.2922V20ZM55.1662 10.7364H57.912V17.2209H55.1662V10.7364Z" fill="white"/>
<path d="M63.2536 15.3239V8.51318H67.7364V14.714L68.9555 16.2897L70.1745 14.714V8.51318H74.6574V15.3239L71.0396 20H66.8713L63.2536 15.3239Z" fill="white"/>
<path fill-rule="evenodd" clip-rule="evenodd" d="M14.6031 20H19.1961V18.5178H21.4926V20H26.0856V8.51318H15.8949L14.6031 10.1806V20ZM19.0921 10.9216H21.6787V15.7387H19.0921V10.9216Z" fill="white"/>
<path d="M13.8249 10.9529V8.51318H2.34242V10.9529H5.80289V20H10.3644V10.9529H13.8249Z" fill="white"/>
<path fill-rule="evenodd" clip-rule="evenodd" d="M26.8639 8.51318H38.1891V16.4798H35.4653L38.1891 20H34.0317L31.308 16.4798V20H26.8639V8.51318ZM31.2432 10.7364H33.8267V13.5155H31.2432V10.7364Z" fill="white"/>
<path d="M43.4118 20V16.4798L46.1355 20H50.2929L45.5741 13.9012L49.7427 8.51318H45.0235L43.4506 10.5462V8.51318H38.9677V20H43.4118Z" fill="white"/>
</svg>
