<svg width="23" height="23" viewBox="0 0 23 23" fill="none" xmlns="http://www.w3.org/2000/svg">
<path d="M11.4998 18.1509V20.3646M11.4998 19.2529C15.7817 19.2529 19.2528 15.7819 19.2528 11.5C19.2528 7.21821 15.7817 3.74708 11.4998 3.74708C7.21802 3.74708 3.74692 7.21821 3.74692 11.5C3.74692 15.7819 7.21802 19.2529 11.4998 19.2529ZM18.1507 11.5H20.3644H18.1507ZM4.849 11.5H2.63525H4.849ZM11.4998 4.84919V2.63544V4.84919Z" stroke="#30333E" stroke-width="1.5" stroke-linecap="round" stroke-linejoin="round"/>
<path d="M11.4999 13.7138C12.7225 13.7138 13.7136 12.7226 13.7136 11.5C13.7136 10.2774 12.7225 9.28625 11.4999 9.28625C10.2772 9.28625 9.28613 10.2774 9.28613 11.5C9.28613 12.7226 10.2772 13.7138 11.4999 13.7138Z" stroke="#9296A9" stroke-width="1.5" stroke-linecap="round" stroke-linejoin="round"/>
</svg>
