<svg width="24" height="24" viewBox="0 0 24 24" fill="none" xmlns="http://www.w3.org/2000/svg">
<path d="M12.0002 14.57C13.4196 14.57 14.5702 13.4194 14.5702 12C14.5702 10.5806 13.4196 9.42999 12.0002 9.42999C10.5808 9.42999 9.43018 10.5806 9.43018 12C9.43018 13.4194 10.5808 14.57 12.0002 14.57Z" stroke="#9296A9" stroke-width="1.5" stroke-linecap="round" stroke-linejoin="round"/>
<path d="M20.5199 8.27L19.4899 6.49C19.0599 5.75 18.1199 5.5 17.3799 5.93L16.8699 6.22C15.8399 6.81 14.5599 6.07 14.5599 4.88V4.29C14.5599 3.44 13.8699 2.75 13.0199 2.75H10.9599C10.1099 2.75 9.41991 3.44 9.41991 4.29V4.88C9.41991 6.07 8.13988 6.81 7.10988 6.22L6.5999 5.93C5.8599 5.5 4.91989 5.76 4.48989 6.49L3.45989 8.27C3.02989 9.01 3.28989 9.95 4.01989 10.38L4.5299 10.67C5.5599 11.26 5.5599 12.75 4.5299 13.34L4.01989 13.63C3.27989 14.06 3.02989 15 3.45989 15.74L4.48989 17.52C4.91989 18.26 5.8599 18.51 6.5999 18.08L7.10988 17.79C8.13988 17.2 9.41991 17.94 9.41991 19.13V19.72C9.41991 20.57 10.1099 21.26 10.9599 21.26H13.0199C13.8699 21.26 14.5599 20.57 14.5599 19.72V19.13C14.5599 17.94 15.8399 17.2 16.8699 17.79L17.3799 18.08C18.1199 18.51 19.0599 18.25 19.4899 17.52L20.5199 15.74C20.9499 15 20.6899 14.06 19.9599 13.63L19.4499 13.34C18.4199 12.75 18.4199 11.26 19.4499 10.67L19.9599 10.38C20.6999 9.95 20.9499 9 20.5199 8.27Z" stroke="#30333E" stroke-width="1.5" stroke-linecap="round" stroke-linejoin="round"/>
</svg>
